<?xml version="1.0" encoding="UTF-8"?>
<svg version="1.1" xmlns="http://www.w3.org/2000/svg" width="764" height="800">
<path d="M0 0 C252.12 0 504.24 0 764 0 C764 264 764 528 764 800 C511.88 800 259.76 800 0 800 C0 536 0 272 0 0 Z " fill="#FDFDFC" transform="translate(0,0)"/>
<path d="M0 0 C2.12718999 1.25851282 4.25480903 2.51630067 6.3828125 3.7734375 C7.47368164 4.42022461 8.56455078 5.06701172 9.68847656 5.73339844 C15.06106678 8.90371782 20.4679483 12.01394236 25.875 15.125 C28.05470496 16.38148012 30.23439237 17.6379907 32.4140625 18.89453125 C36.82453753 21.43530565 41.236258 23.97390567 45.6484375 26.51171875 C49.9976996 29.01362577 54.34230511 31.52334819 58.68359375 34.0390625 C62.89062765 36.4766617 67.11299949 38.88418577 71.34765625 41.2734375 C73.3361705 42.41105115 75.32446224 43.54905387 77.3125 44.6875 C78.6732666 45.44281006 78.6732666 45.44281006 80.06152344 46.21337891 C85.12202643 49.13677319 89.7333773 52.0889094 92 57.6875 C93.02464689 64.14683739 93.15406102 70.47814525 93.16113281 77.00952148 C93.16609772 78.11789368 93.17106262 79.22626587 93.17617798 80.3682251 C93.1907188 84.01502108 93.1975868 87.66177361 93.203125 91.30859375 C93.20888149 93.85392761 93.21463916 96.39926148 93.22039795 98.94459534 C93.22954664 103.59355225 93.23585736 108.24249625 93.2388947 112.89145988 C93.2433768 119.71150784 93.26094533 126.53135552 93.2898953 133.35134262 C93.31418848 139.28228836 93.3218423 145.21318464 93.32357025 151.14418221 C93.3265907 153.65710607 93.33459863 156.17002922 93.34775543 158.68292046 C93.36486512 162.2007952 93.36292377 165.71818418 93.35644531 169.23608398 C93.37026749 170.78169762 93.37026749 170.78169762 93.3843689 172.35853577 C93.34103449 179.89409961 92.53942074 186.61346436 87.625 192.5625 C86.75875 193.26375 85.8925 193.965 85 194.6875 C84.278125 195.285625 83.55625 195.88375 82.8125 196.5 C77.07582291 198.92215255 72.44801767 198.63429429 66.63671875 196.38671875 C55.08282054 190.99274199 44.18904811 184.05439372 33.22363281 177.58154297 C27.83558462 174.41579942 22.41699727 171.30335715 17 168.1875 C5.51852145 161.57252557 -5.94530677 154.92823013 -17.375 148.22412109 C-19.7983138 146.80556296 -22.22672236 145.39615866 -24.65625 143.98828125 C-26.00030934 143.20104873 -27.34408476 142.41333117 -28.6875 141.625 C-30.36392578 140.64853516 -30.36392578 140.64853516 -32.07421875 139.65234375 C-37.54315787 135.9796116 -41.19941586 132.10007076 -43 125.6875 C-43.43071801 121.76054349 -43.42030063 117.85988379 -43.40405273 113.91235352 C-43.41091599 112.74399963 -43.41777924 111.57564575 -43.42485046 110.37188721 C-43.44311222 106.51993568 -43.43928168 102.66839167 -43.43359375 98.81640625 C-43.43700214 96.81135537 -43.44041866 94.8063043 -43.44494683 92.80125564 C-43.45896834 86.50149225 -43.45745067 80.20186453 -43.44604492 73.90209961 C-43.434566 67.4189477 -43.44864056 60.93620958 -43.4754414 54.45311219 C-43.4976451 48.87154637 -43.50422532 43.29011 -43.49836498 37.70850319 C-43.49500528 34.38158263 -43.49906802 31.05498477 -43.51461601 27.72809029 C-43.52952149 24.01576226 -43.51885059 20.304341 -43.50170898 16.59204102 C-43.51137695 15.50036118 -43.52104492 14.40868134 -43.53100586 13.28392029 C-43.45869215 5.79091686 -42.25916317 0.45412059 -37.21875 -5.37109375 C-36.6515625 -5.82613281 -36.084375 -6.28117187 -35.5 -6.75 C-34.9328125 -7.22308594 -34.365625 -7.69617188 -33.78125 -8.18359375 C-22.76191789 -15.16733713 -9.41203445 -5.64706278 0 0 Z " fill="#010101" transform="translate(284,337.3125)"/>
<path d="M0 0 C2.85081769 1.50716289 5.52650816 3.16325403 8.22607422 4.92675781 C10.3133016 6.21664736 12.40190243 7.50431647 14.49169922 8.79003906 C15.57515625 9.46760254 16.65861328 10.14516602 17.77490234 10.84326172 C23.00133785 14.05669115 28.33459679 17.0743868 33.67440796 20.09429932 C36.65566251 21.78204581 39.63007658 23.48175686 42.60498047 25.18066406 C43.72791504 25.82148926 44.85084961 26.46231445 46.0078125 27.12255859 C52.57560546 30.8774704 59.12217248 34.66864508 65.66162109 38.47265625 C68.53038738 40.13994469 71.40177912 41.80267503 74.27294922 43.46582031 C76.40326208 44.70261946 78.53347151 45.93959677 80.66357422 47.17675781 C82.13262207 48.02681396 82.13262207 48.02681396 83.63134766 48.89404297 C104.98178624 61.31644586 104.98178624 61.31644586 107.16357422 66.92675781 C108.05224876 73.58310437 108.38707647 80.50014829 104.17138672 86.06347656 C99.88851254 90.03805046 94.76280696 92.71263368 89.68115234 95.5234375 C85.77381646 97.70142108 81.90994899 99.95368682 78.03930664 102.19604492 C74.66878297 104.14742688 71.29355721 106.09047018 67.91748047 108.03222656 C61.65225266 111.64007503 55.40513372 115.2781572 49.16357422 118.92675781 C37.46146507 125.75963081 25.75501424 132.58352166 13.98632812 139.30126953 C11.51244083 140.7258623 9.06012119 142.17990344 6.61279297 143.64941406 C0.56223116 147.21809603 -5.2326581 150.43148862 -12.43017578 149.89941406 C-20.89250093 147.48299323 -28.35811048 142.44450613 -35.83642578 137.92675781 C-37.24213909 137.10200118 -38.64957693 136.28017365 -40.05908203 135.46191406 C-42.79470628 133.87051885 -45.52191591 132.26609291 -48.24267578 130.64941406 C-53.67520277 127.42385116 -59.12978382 124.23631253 -64.58642578 121.05175781 C-65.60945801 120.45459961 -66.63249023 119.85744141 -67.68652344 119.2421875 C-74.25763736 115.41292502 -80.85162975 111.62625616 -87.46142578 107.86425781 C-90.02254214 106.40048206 -92.5826735 104.93500789 -95.14208984 103.46826172 C-97.02775081 102.38942307 -98.91527949 101.31384537 -100.80419922 100.24072266 C-103.82176465 98.52266806 -106.82978504 96.78884512 -109.83642578 95.05175781 C-111.22595459 94.2665979 -111.22595459 94.2665979 -112.64355469 93.46557617 C-118.64488136 89.97250771 -122.67637426 86.73256288 -126.14892578 80.61425781 C-127.64757032 74.75592008 -127.78477824 69.82552774 -124.77392578 64.42675781 C-120.48143418 58.7099841 -114.47451757 55.68519887 -108.33789062 52.31396484 C-104.43256348 50.14823491 -100.57669236 47.89808626 -96.71313477 45.65893555 C-93.34911513 43.71040616 -89.97995659 41.7710105 -86.60986328 39.83300781 C-80.23273402 36.16083055 -73.87592976 32.45467847 -67.52392578 28.73925781 C-59.19059811 23.867592 -50.84488228 19.01886319 -42.43481445 14.28051758 C-38.14571751 11.85752816 -33.92228075 9.37464172 -29.76220703 6.73535156 C-28.5195105 5.965177 -28.5195105 5.965177 -27.25170898 5.17944336 C-25.7078909 4.21894601 -24.17732356 3.23659048 -22.6652832 2.22680664 C-15.62729429 -2.09741207 -7.80530712 -2.95335945 0 0 Z " fill="#010101" transform="translate(396.83642578125,221.0732421875)"/>
<path d="M0 0 C4.62604009 3.16607881 7.13528128 6.3842365 8.69140625 11.83203125 C9.12649995 15.81956142 9.11167921 19.78258067 9.09545898 23.79077148 C9.10232224 24.97863251 9.10918549 26.16649353 9.11625671 27.39035034 C9.13137331 30.63221923 9.13303213 33.87372564 9.12731433 37.11561465 C9.12421304 39.82920988 9.13032534 42.54275364 9.13635308 45.25634152 C9.15037548 51.6615796 9.14885617 58.06668425 9.13745117 64.47192383 C9.12597213 71.0641363 9.14004685 77.65594183 9.16684765 84.2481007 C9.18904965 89.92308352 9.19563195 95.59793902 9.18977123 101.27296215 C9.18641115 104.65575701 9.18875294 108.03829108 9.20602226 111.42104912 C9.22092534 115.19563814 9.21025853 118.96933507 9.19311523 122.74389648 C9.20761719 124.40946846 9.20761719 124.40946846 9.22241211 126.10868835 C9.14690991 134.06127691 7.79272353 139.65413823 2.16015625 145.42578125 C-2.48831332 148.91213343 -7.7184005 151.56018225 -12.80859375 154.33203125 C-21.02383038 158.86714735 -29.18504513 163.46533672 -37.24609375 168.26953125 C-48.40048395 174.90827747 -59.64057219 181.3925584 -70.89306641 187.86328125 C-74.47710271 189.92916179 -78.05550951 192.00452607 -81.6328125 194.08203125 C-83.42447769 195.12108322 -85.21629436 196.1598734 -87.00817871 197.19854736 C-88.71386425 198.188329 -90.41798313 199.18080888 -92.12207031 200.17333984 C-93.15170898 200.76969238 -94.18134766 201.36604492 -95.2421875 201.98046875 C-96.15025146 202.50817871 -97.05831543 203.03588867 -97.99389648 203.57958984 C-103.23726017 206.41668041 -108.77918897 206.87638275 -114.5 205.18359375 C-119.61898994 202.91064566 -122.65663524 199.7375854 -125.30859375 194.83203125 C-126.29384832 191.87626754 -126.44102585 189.9385007 -126.45576477 186.85554504 C-126.46292007 185.82804138 -126.47007538 184.80053772 -126.47744751 183.74189758 C-126.48013641 182.61511093 -126.48282532 181.48832428 -126.4855957 180.32739258 C-126.4921669 179.14011566 -126.4987381 177.95283875 -126.50550842 176.72958374 C-126.52525736 172.79108321 -126.53691062 168.852596 -126.546875 164.9140625 C-126.5509237 163.55621508 -126.55504066 162.19836787 -126.55922508 160.84052086 C-126.57827421 154.45891565 -126.59250436 148.07732196 -126.60083705 141.69569379 C-126.61060101 134.34011199 -126.63689933 126.98483179 -126.67733794 119.62935621 C-126.70755138 113.93749551 -126.72231096 108.24572099 -126.72561806 102.55378169 C-126.72796313 99.15747639 -126.73685143 95.76149338 -126.76207924 92.36527443 C-126.78642616 88.57115318 -126.78551302 84.77781803 -126.77856445 80.98364258 C-126.79137451 79.86697708 -126.80418457 78.75031158 -126.81738281 77.59980774 C-126.76660529 69.98295771 -125.74713919 64.25823002 -120.1328125 58.6640625 C-116.21353186 56.1216799 -112.19701442 53.80070181 -108.12109375 51.51953125 C-106.22752967 50.44850858 -104.33431646 49.37686539 -102.44140625 48.3046875 C-101.44270508 47.74023926 -100.44400391 47.17579102 -99.41503906 46.59423828 C-94.09326674 43.57533286 -88.79466866 40.5164147 -83.49609375 37.45703125 C-82.40079346 36.82498779 -81.30549316 36.19294434 -80.17700195 35.54174805 C-72.87594207 31.32491829 -65.58890837 27.08455429 -58.30859375 22.83203125 C-56.35031296 21.69001407 -54.39197918 20.54808774 -52.43359375 19.40625 C-48.64980648 17.20006986 -44.86941145 14.98824734 -41.09179688 12.77151489 C-38.73764616 11.39198869 -36.38039603 10.01782116 -34.02246094 8.64477539 C-32.35751054 7.67307998 -30.69627273 6.69503194 -29.03515625 5.71679688 C-10.26478836 -5.19318396 -10.26478836 -5.19318396 0 0 Z " fill="#010101" transform="translate(524.30859375,329.16796875)"/>
<path d="M0 0 C7.32216454 3.13737021 14.15644268 7.32624501 21 11.375 C27.66295496 15.3076325 34.33692579 19.20694998 41.09765625 22.96875 C42.27303189 23.62798057 43.44816437 24.28764488 44.62304688 24.94775391 C46.8610598 26.20179096 49.10558172 27.44430497 51.35742188 28.67333984 C58.22166962 32.54335538 64.38255352 36.76510703 68 44 C68.102721 46.05967938 68.139527 48.12274196 68.14717102 50.18496704 C68.15084771 50.82623264 68.1545244 51.46749823 68.1583125 52.12819612 C68.16936554 54.28680672 68.17319595 56.44536921 68.17700195 58.60400391 C68.18326555 60.14795078 68.18991225 61.69189614 68.19691467 63.23583984 C68.21433775 67.43859861 68.2248807 71.64134599 68.2331202 75.84413195 C68.23826922 78.47042444 68.24434509 81.09671339 68.25063133 83.72300339 C68.2696899 91.94135264 68.28391776 100.15969288 68.2922433 108.37805998 C68.3020092 117.86173039 68.32830894 127.34516698 68.36874419 136.82875502 C68.39892676 144.15964728 68.41371433 151.49047262 68.41702431 158.8214258 C68.419373 163.19916738 68.42830922 167.57665939 68.45348549 171.95433426 C68.47680779 176.07644332 68.48098288 180.19813924 68.47072411 184.32029724 C68.47022959 185.82953136 68.47652525 187.33878609 68.49028015 188.84795761 C68.55858663 196.78988036 68.50977856 203.1941406 64 210 C59.63248745 214.41667779 53.66880072 217.23340311 48.3125 220.3125 C47.26900391 220.91626465 46.22550781 221.5200293 45.15039062 222.14208984 C42.92500101 223.42899444 40.69856957 224.71409886 38.47119141 225.99755859 C35.53984432 227.68701847 32.6131453 229.38434991 29.68803406 231.08457947 C26.79329 232.76690631 23.89652094 234.44573437 21 236.125 C19.38218628 237.06533081 19.38218628 237.06533081 17.73168945 238.0246582 C14.83091968 239.70129174 11.92145829 241.35971543 9 243 C7.85640015 243.64243652 7.85640015 243.64243652 6.68969727 244.29785156 C0.65839617 247.5189279 -4.30734152 247.9113799 -11 247 C-15.88232813 245.3667346 -19.23297327 242.30426381 -22 238 C-24.1214691 232.92394009 -24.28770246 228.45924912 -24.26742554 223.05618286 C-24.27195665 222.16648642 -24.27648776 221.27678999 -24.28115618 220.36013305 C-24.29379669 217.38472962 -24.29218003 214.40950931 -24.29052734 211.43408203 C-24.29651276 209.29841883 -24.30331834 207.1627578 -24.31088257 205.02709961 C-24.32854729 199.22957041 -24.33323812 193.43210026 -24.33451414 187.63454676 C-24.3359359 184.01188067 -24.34020596 180.38922959 -24.34550858 176.76656723 C-24.36400963 164.12675778 -24.37217899 151.48699051 -24.37060547 138.84716797 C-24.3694037 127.06716936 -24.390513 115.28735386 -24.4220928 103.50740159 C-24.44824632 93.39088235 -24.45897317 83.27442296 -24.45769465 73.15787017 C-24.45718479 67.11690132 -24.46288136 61.07609523 -24.48405075 55.03516006 C-24.50341768 49.35354296 -24.50356796 43.67224419 -24.48901749 37.99061584 C-24.48692647 35.9073172 -24.49164769 33.82399871 -24.5037384 31.7407341 C-24.519195 28.89271073 -24.50987983 26.04578449 -24.49447632 23.19778442 C-24.50476344 22.37695315 -24.51505057 21.55612187 -24.52564943 20.71041691 C-24.44695335 14.10841086 -22.60414787 8.76400645 -18.02734375 3.90625 C-12.20860614 -0.00916222 -6.9609683 -1.58727812 0 0 Z " fill="#010201" transform="translate(152,262)"/>
<path d="M0 0 C5.58272645 2.42209614 8.27250816 6.21711185 11.58886719 11.19165039 C11.8495636 14.23197937 11.8495636 14.23197937 11.86352539 18.01464844 C11.86863632 18.70449326 11.87374725 19.39433807 11.87901306 20.10508728 C11.89292244 22.38793601 11.89195043 24.67048303 11.88964844 26.95336914 C11.89353648 28.54417533 11.89787137 30.13498049 11.90263367 31.7257843 C11.9101001 35.06396849 11.90980291 38.40204696 11.90454102 41.74023438 C11.89876545 46.00270372 11.91562859 50.26473584 11.93888569 54.52713299 C11.95367846 57.81556194 11.95448689 61.10388718 11.95137596 64.39234352 C11.95188704 65.9627042 11.95708454 67.53307101 11.96718788 69.10339928 C12.06680687 86.76303894 12.06680687 86.76303894 6.96777344 93.25585938 C1.23082737 97.97573127 -4.93215928 101.63968723 -11.41113281 105.25415039 C-13.15292223 106.24201628 -14.89470223 107.22989953 -16.63574219 108.21908569 C-18.41110623 109.22679155 -20.1884446 110.23095506 -21.96582031 111.23510742 C-27.14149394 114.17429736 -32.27640824 117.18168376 -37.41113281 120.19165039 C-46.82023586 125.69246435 -56.25584827 131.14614801 -65.70019531 136.58618164 C-72.95065044 140.76514325 -80.18578133 144.96945309 -87.41113281 149.19165039 C-91.41039354 151.5262527 -95.41047896 153.85943623 -99.41113281 156.19165039 C-100.26140045 156.68749634 -100.26140045 156.68749634 -101.12884521 157.19335938 C-104.70411185 159.277795 -108.28168019 161.35819767 -111.86206055 163.43383789 C-113.55878631 164.41852564 -115.2535392 165.40661039 -116.94824219 166.39477539 C-117.98142578 166.99290039 -119.01460938 167.59102539 -120.07910156 168.20727539 C-120.98942139 168.73611328 -121.89974121 169.26495117 -122.83764648 169.80981445 C-128.77562039 172.99821521 -133.69474366 174.27128525 -140.41113281 173.19165039 C-144.30459238 171.60331743 -147.74450488 169.44448679 -151.28613281 167.19165039 C-153.39039047 165.90711226 -155.49591475 164.6246473 -157.60253906 163.34399414 C-158.70355957 162.6670752 -159.80458008 161.99015625 -160.93896484 161.29272461 C-166.94585915 157.62969229 -173.09755705 154.21246871 -179.22363281 150.75415039 C-185.72854261 147.07980224 -192.21120907 143.37849252 -198.57128906 139.45727539 C-199.44277588 138.92005859 -200.3142627 138.3828418 -201.2121582 137.8293457 C-204.51136942 135.37224469 -205.79455055 132.93918199 -207.41113281 129.19165039 C-207.74113281 128.53165039 -208.07113281 127.87165039 -208.41113281 127.19165039 C-209.46863979 120.85999467 -208.08797023 116.70276341 -204.60253906 111.42993164 C-198.45116573 105.14697813 -190.02737906 101.17368273 -182.41113281 96.94165039 C-175.6035044 93.12678407 -168.81139142 89.29638122 -162.09863281 85.31665039 C-147.08815681 76.42741559 -131.9422432 67.7671294 -116.78613281 59.12915039 C-108.39840867 54.34773855 -100.05330985 49.49588766 -91.71899414 44.62207031 C-84.15340959 40.20026209 -76.56764652 35.81442948 -68.97363281 31.44165039 C-59.40365922 25.93085056 -59.40365922 25.93085056 -49.87426758 20.3503418 C-48.57577412 19.58393837 -47.27550245 18.820539 -45.97338867 18.06030273 C-41.60855557 15.50924012 -37.29000383 12.89150517 -32.98144531 10.24633789 C-31.24347326 9.1971966 -29.50322214 8.15199156 -27.76147461 7.10913086 C-26.08294054 6.0949324 -24.41960218 5.055717 -22.75683594 4.01586914 C-15.24172481 -0.45905891 -8.61041305 -2.88670288 0 0 Z " fill="#010101" transform="translate(365.4111328125,106.808349609375)"/>
<path d="M0 0 C3.92305164 2.92305808 6.9688748 5.93774959 9.1875 10.375 C9.29221007 13.254313 9.33529381 16.10980286 9.33467102 18.98965454 C9.33834771 19.89226749 9.3420244 20.79488044 9.3458125 21.72484529 C9.35687935 24.76790382 9.36069828 27.81092824 9.36450195 30.85400391 C9.37076441 33.02848419 9.37741102 35.20296339 9.38441467 37.37744141 C9.40184636 43.29915515 9.41238266 49.2208608 9.4206202 55.14259386 C9.42576648 58.84094795 9.43184242 62.53929951 9.43813133 66.23765182 C9.4571907 77.80484837 9.47141943 89.3720385 9.4797433 100.93924773 C9.48951505 114.29876758 9.51582993 127.658104 9.55624419 141.01756728 C9.58639448 151.33781852 9.60121121 161.65802223 9.60452431 171.97831666 C9.60687632 178.14455087 9.61585635 184.31060818 9.64098549 190.4767952 C9.66425155 196.27981808 9.66850516 202.08254744 9.65822411 207.88560486 C9.65772826 210.01405691 9.66406303 212.14252333 9.67778015 214.27093124 C9.69548001 217.18045354 9.6884019 220.08892036 9.67524719 222.9984436 C9.68621644 223.83756715 9.69718568 224.6766907 9.70848733 225.54124224 C9.64617616 231.26346144 8.35797834 235.57388231 5.1875 240.375 C3.15234375 242.21484375 3.15234375 242.21484375 1.125 243.3125 C0.11759766 243.88291016 0.11759766 243.88291016 -0.91015625 244.46484375 C-5.01929554 246.43081799 -8.29189143 246.65304379 -12.8125 246.375 C-15.71484375 245.3359375 -15.71484375 245.3359375 -18.75 243.75 C-19.61902954 243.29790161 -19.61902954 243.29790161 -20.50561523 242.83666992 C-28.68384398 238.50006062 -36.62864497 233.72098801 -44.59765625 229.015625 C-48.62163339 226.64436398 -52.66624745 224.32064217 -56.74609375 222.046875 C-58.15362915 221.2592981 -58.15362915 221.2592981 -59.58959961 220.45581055 C-61.34268334 219.47827735 -63.09973286 218.50780552 -64.86157227 217.54614258 C-71.82970236 213.64480529 -79.01505916 209.45816902 -82.17593956 201.78059864 C-83.66597471 196.1496698 -83.25510066 190.18999397 -83.24829102 184.40283203 C-83.25727632 182.87946841 -83.26748634 181.3561116 -83.27882385 179.83276367 C-83.30524781 175.70870167 -83.31235403 171.58482659 -83.31427121 167.46068811 C-83.31640796 164.88074345 -83.32282076 162.30084587 -83.33076286 159.72091293 C-83.35848991 150.71088407 -83.37077154 141.70098808 -83.3684082 132.69091797 C-83.36660601 124.30704758 -83.39826594 115.92375636 -83.44563919 107.54003251 C-83.48492787 100.32874247 -83.50095734 93.1176413 -83.49904197 85.90624511 C-83.4982789 81.60501518 -83.50672696 77.30430046 -83.53857613 73.00317764 C-83.56772676 68.95630944 -83.56778625 64.91044527 -83.54602623 60.86354065 C-83.54290192 59.38374735 -83.54989914 57.90389035 -83.5681076 56.42420578 C-83.67099672 47.47937861 -83.09280556 41.08957139 -76.8125 34.375 C-74.296875 32.2734375 -74.296875 32.2734375 -71.5625 30.75 C-69.87060547 29.77933594 -69.87060547 29.77933594 -68.14453125 28.7890625 C-67.48146973 28.42071289 -66.8184082 28.05236328 -66.13525391 27.67285156 C-62.2735145 25.51508336 -58.45192435 23.28780135 -54.62255859 21.07324219 C-52.36832593 19.77102873 -50.11212586 18.47221527 -47.85400391 17.17675781 C-39.81313539 12.56051103 -31.84503364 7.83736662 -23.95483398 2.96777344 C-23.19887939 2.50661133 -22.4429248 2.04544922 -21.6640625 1.5703125 C-20.68687256 0.96727295 -20.68687256 0.96727295 -19.68994141 0.35205078 C-13.89311071 -2.66471339 -5.81309051 -3.07226933 0 0 Z " fill="#020202" transform="translate(636.8125,263.625)"/>
<path d="M0 0 C4.99063006 1.77458861 9.44200163 4.34318801 14 7 C14.84046875 7.48307617 15.6809375 7.96615234 16.546875 8.46386719 C21.55321573 11.34357377 26.54013857 14.254832 31.515625 17.1875 C37.98645058 21.00031556 44.48980663 24.75490971 51 28.5 C59.30842343 33.28421682 67.60001831 38.09568951 75.875 42.9375 C84.09431125 47.74539642 92.34441279 52.49603402 100.61694336 57.21148682 C102.41930172 58.23961903 104.2205906 59.2695978 106.02148438 60.30029297 C111.11680162 63.21595214 116.21498249 66.12476379 121.33984375 68.98828125 C122.85176844 69.84599124 124.36350543 70.70403226 125.875 71.5625 C126.52782959 71.91924805 127.18065918 72.27599609 127.85327148 72.64355469 C133.65647674 75.97297013 138.45295181 80.72672768 141 87 C141.26069641 90.08465576 141.26069641 90.08465576 141.2746582 93.75292969 C141.27976913 94.42341339 141.28488007 95.09389709 141.29014587 95.78469849 C141.30402349 97.997182 141.30308586 100.20935317 141.30078125 102.421875 C141.30467057 103.96641149 141.30900572 105.51094691 141.31376648 107.05548096 C141.32122576 110.29353296 141.32094056 113.53147595 141.31567383 116.76953125 C141.30989423 120.90306159 141.32677468 125.03614164 141.3500185 129.16959763 C141.36481271 132.36108984 141.36561959 135.55247523 141.36250877 138.74399567 C141.36301962 140.26690814 141.36821259 141.78982698 141.37832069 143.31270599 C141.43176324 152.49430447 141.29743606 159.88328888 136.1875 167.8125 C132.22365169 171.77634831 128.53288293 173.21064313 123 173.625 C115.36994095 173.33976415 109.43811195 169.72747767 103 166 C102.16871582 165.52224121 101.33743164 165.04448242 100.48095703 164.55224609 C95.51976714 161.69278857 90.5780267 158.80147045 85.64453125 155.89453125 C78.6533366 151.78224842 71.6111214 147.76263881 64.5625 143.75 C56.48562977 139.14823245 48.42738871 134.51991313 40.42773438 129.78491211 C29.67398542 123.42839733 18.82536617 117.23339834 8 111 C3.62449212 108.48004706 -0.75056134 105.95930859 -5.125 103.4375 C-6.20338135 102.81584961 -7.2817627 102.19419922 -8.39282227 101.55371094 C-16.54246036 96.85126622 -24.67539455 92.12068096 -32.78564453 87.35058594 C-37.67017517 84.48682314 -42.57316207 81.66706956 -47.5329895 78.93611145 C-50.07390098 77.53658878 -52.60814658 76.1251862 -55.14263916 74.71408081 C-56.35962373 74.04144199 -57.580034 73.37495588 -58.80413818 72.71536255 C-66.42985523 68.60489957 -73.25241081 64.44734775 -78 57 C-79.41415685 51.39944048 -78.6312502 45.96388951 -76.875 40.5 C-71.81259788 33.7501305 -64.33328545 30.1323689 -57.125 26.0625 C-55.38981992 25.07267177 -53.65464776 24.08282919 -51.9200592 23.09196472 C-50.73193369 22.41353618 -49.54340286 21.73581699 -48.35447693 21.05879211 C-42.14704225 17.52255862 -35.97840499 13.9205787 -29.8125 10.3125 C-27.00585759 8.67111743 -24.19917251 7.03002083 -21.38696289 5.39819336 C-19.90499326 4.53011112 -18.43103509 3.64799873 -16.97045898 2.74438477 C-11.18402776 -0.78151313 -6.6132397 -1.1167267 0 0 Z " fill="#010101" transform="translate(236,492)"/>
<path d="M0 0 C8.39084899 3.17805828 16.04375783 8.09025366 23.57421875 12.91015625 C27.2631184 15.21914264 31.09751932 17.25033804 34.92407227 19.32006836 C40.53541786 22.38472976 46.07678615 25.57293968 51.625 28.75 C52.24238037 29.10304199 52.85976074 29.45608398 53.49584961 29.81982422 C61.16576771 34.20630904 68.81236896 38.62850355 76.41308594 43.1340332 C83.19262922 47.14005176 90.03473502 51.03647834 96.875 54.9375 C112.8298147 64.0377589 128.72025129 73.24387147 144.57788086 82.51245117 C150.01516404 85.68726977 155.46129133 88.84589812 160.921875 91.98046875 C161.49892685 92.31202972 162.0759787 92.6435907 162.67051697 92.98519897 C165.44790067 94.58086829 168.22664893 96.17404805 171.00805664 97.76269531 C193.15969433 110.47908299 193.15969433 110.47908299 196 119 C196.60161973 124.96991886 196.08461718 129.72629966 193 135 C187.78556939 140.57678606 181.07366092 143.97339959 174.4375 147.5625 C172.20319327 148.79072694 169.97014477 150.02124522 167.73828125 151.25390625 C166.61502441 151.87410645 165.49176758 152.49430664 164.33447266 153.13330078 C158.32938117 156.49506162 152.42362667 160.02267977 146.52124023 163.56079102 C144.86068037 164.55293319 143.19511922 165.5367575 141.52441406 166.51171875 C139.76872917 167.54679178 138.0320861 168.61457083 136.31152344 169.70703125 C129.85756451 173.61187073 124.54811402 175.60087112 117 174 C113.03054979 172.38878139 109.53861744 170.24388499 105.9375 167.9375 C103.81977788 166.6419738 101.70126056 165.34774676 99.58203125 164.0546875 C98.49744629 163.38276367 97.41286133 162.71083984 96.29541016 162.01855469 C90.96885429 158.75585177 85.54605638 155.66469225 80.125 152.5625 C77.94235684 151.30529754 75.76006684 150.04748175 73.578125 148.7890625 C71.3854595 147.52596731 69.19275111 146.26294656 67 145 C53.33583566 137.1299279 39.67824236 129.25002756 26.06933594 121.28466797 C20.75114149 118.17520429 15.4201626 115.08982091 10.0703125 112.03515625 C8.89970206 111.36529995 7.72912892 110.69537846 6.55859375 110.02539062 C4.34215688 108.75831494 2.12355541 107.49501473 -0.09765625 106.23632812 C-4.96560353 103.45067769 -9.79679513 100.60309949 -14.5078125 97.55859375 C-15.28012207 97.06544678 -16.05243164 96.5722998 -16.84814453 96.06420898 C-22.30048504 90.83394588 -23.24055239 85.91936064 -23.50170898 78.59350586 C-23.53700724 75.63331995 -23.51973588 72.67506631 -23.49609375 69.71484375 C-23.49624896 68.12878859 -23.49774156 66.54273306 -23.50050354 64.9566803 C-23.50188292 61.64404386 -23.48940617 58.33184283 -23.46655273 55.01928711 C-23.43814591 50.78707722 -23.4409178 46.55558862 -23.45364285 42.32332516 C-23.4606184 39.05206713 -23.45278981 35.78097397 -23.44038582 32.50973701 C-23.43589116 30.94972937 -23.43551704 29.38970391 -23.43945122 27.82969475 C-23.44238265 25.645131 -23.4257673 23.46153995 -23.40405273 21.27709961 C-23.39864975 20.03770126 -23.39324677 18.79830292 -23.38768005 17.52134705 C-22.85885128 12.71792828 -21.53078089 8.71147441 -18.24609375 5.0390625 C-17.64925781 4.57242188 -17.05242187 4.10578125 -16.4375 3.625 C-15.83808594 3.14289063 -15.23867188 2.66078125 -14.62109375 2.1640625 C-10.12496124 -1.06448567 -5.3253165 -0.76623259 0 0 Z " fill="#010101" transform="translate(421,106)"/>
<path d="M0 0 C2.86777833 1.54158276 5.59053794 3.21567378 8.32495117 4.98291016 C10.41387466 6.26826111 12.50375423 7.55205929 14.59448242 8.83447266 C15.67036621 9.50510742 16.74625 10.17574219 17.85473633 10.86669922 C21.25407404 12.95363754 24.68646542 14.96479198 28.14916992 16.94384766 C28.72449463 17.27269455 29.29981934 17.60154144 29.89257812 17.94035339 C31.59861727 18.91389853 33.30552807 19.88591569 35.01245117 20.85791016 C60.32767096 35.30356951 60.32767096 35.30356951 63.19995117 43.92041016 C63.95951875 50.02950367 63.64659011 54.9587969 59.90625 59.99731445 C54.05750637 66.58918075 44.69309046 70.61328686 37.13745117 74.92041016 C34.81293137 76.25322264 32.48872028 77.58656259 30.16479492 78.92041016 C29.57942963 79.25596924 28.99406433 79.59152832 28.39096069 79.93725586 C22.64260504 83.23426358 16.91982467 86.57431992 11.19995117 89.92041016 C-0.34695441 96.66808254 -11.92907424 103.35380629 -23.51782227 110.02929688 C-28.94664825 113.15721164 -34.37324164 116.28899463 -39.80004883 119.42041016 C-41.96670465 120.67042895 -44.13337132 121.92042894 -46.30004883 123.17041016 C-47.37254883 123.78916016 -48.44504883 124.40791016 -49.55004883 125.04541016 C-59.30004883 130.67041016 -59.30004883 130.67041016 -62.55053711 132.5456543 C-64.71561953 133.79476534 -66.88065865 135.04395145 -69.0456543 136.29321289 C-74.48620589 139.43243325 -79.92752099 142.57031578 -85.37036133 145.70556641 C-87.55529051 146.96462312 -89.74018654 148.22373737 -91.92504883 149.48291016 C-92.98602783 150.09408691 -94.04700684 150.70526367 -95.14013672 151.33496094 C-100.65903061 154.51782176 -106.16792785 157.71666914 -111.66333008 160.93994141 C-113.31921143 161.91048462 -113.31921143 161.91048462 -115.00854492 162.90063477 C-117.11583252 164.13718845 -119.2216958 165.37617357 -121.32592773 166.61791992 C-122.73430908 167.4444104 -122.73430908 167.4444104 -124.17114258 168.28759766 C-124.99541748 168.77341309 -125.81969238 169.25922852 -126.66894531 169.75976562 C-131.84607588 172.57934161 -137.04958031 172.3741774 -142.80004883 171.92041016 C-147.53170576 170.2555679 -150.58647561 167.75884483 -153.80004883 163.92041016 C-155.6356066 159.46264125 -156.0606776 155.64840024 -156.09057617 150.84863281 C-156.0972934 150.16810349 -156.10401062 149.48757416 -156.1109314 148.78642273 C-156.12982021 146.55236367 -156.13383081 144.31860644 -156.13598633 142.08447266 C-156.14242027 140.52037435 -156.14914907 138.95627723 -156.15615845 137.3921814 C-156.16810816 134.11901053 -156.17184162 130.84594503 -156.1706543 127.57275391 C-156.17045116 123.39433525 -156.19775758 119.21659713 -156.23219872 115.03833961 C-156.25451886 111.80910179 -156.25849029 108.58002649 -156.25743484 105.35071945 C-156.25978294 103.81104562 -156.26856161 102.27136678 -156.28409958 100.73176956 C-156.43843919 83.86069531 -156.43843919 83.86069531 -150.23094177 77.24917603 C-145.6090296 72.85338805 -139.92138878 69.95203106 -134.36254883 66.92041016 C-132.29921479 65.77477559 -130.2367412 64.62759019 -128.17504883 63.47900391 C-127.11930664 62.89231934 -126.06356445 62.30563477 -124.97583008 61.70117188 C-119.90224248 58.85624968 -114.88135686 55.92309279 -109.86254883 52.98291016 C-108.86860107 52.4014624 -107.87465332 51.82001465 -106.85058594 51.22094727 C-104.83587619 50.04186291 -102.82147153 48.8622571 -100.80737305 47.68212891 C-84.21112518 37.95989115 -67.58006031 28.29887883 -50.90698242 18.70898438 C-47.90713457 16.9820564 -44.91007917 15.2503644 -41.91333008 13.51806641 C-37.60888103 11.03354354 -33.29058778 8.57531086 -28.95776367 6.140625 C-27.04666588 5.0598752 -25.15151284 3.95573262 -23.25708008 2.84619141 C-15.77024927 -1.30885441 -8.29440501 -3.19799974 0 0 Z " fill="#010101" transform="translate(553.800048828125,493.07958984375)"/>
<path d="M0 0 C0.33 0 0.66 0 1 0 C1.00238835 1.13344408 1.00477671 2.26688816 1.00723743 3.43467903 C1.06600566 31.00104491 1.14187192 58.5673232 1.23571491 86.13359261 C1.28069978 99.46438544 1.32010825 112.79513392 1.34643555 126.12597656 C1.3693938 137.74376373 1.40276756 149.36146604 1.44870156 160.97918594 C1.47266299 167.13191039 1.49137267 173.28455064 1.49761391 179.43732071 C1.50365148 185.22719052 1.52360351 191.0168448 1.55427551 196.8066349 C1.563077 198.93267509 1.56677397 201.05874343 1.56500816 203.1848011 C1.56335905 206.08627024 1.58002408 208.98707954 1.60127258 211.88845825 C1.59642501 212.73088078 1.59157743 213.5733033 1.58658296 214.44125378 C1.64599117 219.35255879 2.26839936 222.75066006 5 227 C7.46115547 228.84434349 7.46115547 228.84434349 10 230 C10.66 230.33 11.32 230.66 12 231 C14.59248672 231.27175818 17.18448511 231.44572568 19.78515625 231.62109375 C20.51605469 231.74613281 21.24695313 231.87117187 22 232 C22.495 232.99 22.495 232.99 23 234 C15.47688662 234.44471606 10.10139078 234.70315539 4 230 C-1.31318564 224.40717301 -1.1419256 219.56382965 -1.08229065 212.12896729 C-1.07906152 211.22308451 -1.07583239 210.31720174 -1.07250541 209.38386798 C-1.0604216 206.34213238 -1.04105047 203.30048666 -1.02172852 200.25878906 C-1.01158665 198.08088883 -1.00189288 195.90298648 -0.99261475 193.7250824 C-0.96612449 187.80605731 -0.9333468 181.88708159 -0.89946485 175.96809483 C-0.86513103 169.78479801 -0.83654551 163.60147472 -0.80735779 157.41815186 C-0.75119546 145.70620159 -0.68984177 133.99428447 -0.62663645 122.28237033 C-0.55485639 108.95002373 -0.48900625 95.61765027 -0.42356598 82.28527117 C-0.28880737 54.856813 -0.14678387 27.42839627 0 0 Z " fill="#121111" transform="translate(130,275)"/>
<path d="M0 0 C5.20322214 0.49478493 8.8947992 2.41594718 13.25 5.125 C14.76340695 6.04057826 16.27779574 6.95453484 17.79296875 7.8671875 C18.62103027 8.36831055 19.4490918 8.86943359 20.30224609 9.38574219 C25.35059052 12.40652529 30.46096592 15.32027911 35.5625 18.25 C45.04220368 23.70763619 54.5002627 29.20085018 63.94384766 34.72070312 C70.30834818 38.43778096 76.6854317 42.13228331 83.07202148 45.8112793 C86.36189183 47.70644509 89.64984498 49.60490065 92.9375 51.50390625 C96.7227123 53.68992587 100.51408651 55.86435829 104.3125 58.02734375 C105.85433181 58.91377532 107.39601098 59.80047246 108.9375 60.6875 C109.62320068 61.07325195 110.30890137 61.45900391 111.01538086 61.85644531 C114.43323896 63.83578713 116.92130631 65.60198781 119 69 C115.0167039 69 114.09013581 67.47210865 111 65 C108.38234176 63.55980142 105.7071031 62.26286695 103 61 C103 60.34 103 59.68 103 59 C102.28682617 58.89655273 101.57365234 58.79310547 100.83886719 58.68652344 C97.64989097 57.91533311 95.39393071 56.69369167 92.578125 55.015625 C91.03898438 54.10683594 91.03898438 54.10683594 89.46875 53.1796875 C88.4065625 52.54289062 87.344375 51.90609375 86.25 51.25 C84.15154264 50.00436398 82.05259172 48.75955903 79.953125 47.515625 C78.94958984 46.91943359 77.94605469 46.32324219 76.91210938 45.70898438 C72.98006318 43.40144553 69.0023535 41.18287089 65 39 C65 38.34 65 37.68 65 37 C64.319375 36.9175 63.63875 36.835 62.9375 36.75 C59.1253093 35.77667472 56.35929671 34.04192545 53 32 C53 31.34 53 30.68 53 30 C52.32582031 29.91878906 51.65164063 29.83757812 50.95703125 29.75390625 C47.10530859 28.77189506 44.08192164 26.96156811 40.6875 24.9375 C40.04232422 24.56044922 39.39714844 24.18339844 38.73242188 23.79492188 C37.15121848 22.86962507 35.5750854 21.93567319 34 21 C34 20.34 34 19.68 34 19 C33.32582031 18.91878906 32.65164063 18.83757812 31.95703125 18.75390625 C28.10530859 17.77189506 25.08192164 15.96156811 21.6875 13.9375 C21.04232422 13.56044922 20.39714844 13.18339844 19.73242188 12.79492188 C18.15121848 11.86962507 16.5750854 10.93567319 15 10 C15 9.34 15 8.68 15 8 C13.92685547 7.8453125 13.92685547 7.8453125 12.83203125 7.6875 C9.67150484 6.92025497 7.45017514 5.70262646 4.6875 4 C3.80449219 3.46375 2.92148437 2.9275 2.01171875 2.375 C1.34785156 1.92125 0.68398438 1.4675 0 1 C0 0.67 0 0.34 0 0 Z " fill="#141514" transform="translate(495,150)"/>
<path d="M0 0 C1.485 0.99 1.485 0.99 3 2 C3.3719368 4.15865231 3.3719368 4.15865231 3.36749268 6.88987732 C3.37306183 7.92323212 3.37863098 8.95658691 3.3843689 10.02125549 C3.37515411 11.15949265 3.36593933 12.2977298 3.35644531 13.47045898 C3.35848969 14.66562134 3.36053406 15.86078369 3.36264038 17.09216309 C3.36513816 20.37534183 3.35422023 23.65814635 3.33711338 26.94127154 C3.3220983 30.37384969 3.32325187 33.80642343 3.32244873 37.23902893 C3.31875347 43.00519149 3.30377465 48.7712352 3.28125 54.53735352 C3.25239103 61.94011908 3.24202835 69.34278881 3.2375679 76.74560452 C3.23358745 83.10590388 3.2210842 89.46618238 3.20722103 95.8264668 C3.203122 97.87259133 3.20019634 99.91871512 3.19742584 101.96484184 C3.19057283 105.77664869 3.1769444 109.5883676 3.16113281 113.40014648 C3.15945602 115.10446587 3.15945602 115.10446587 3.15774536 116.84321594 C3.15203522 117.87939056 3.14632507 118.91556519 3.14044189 119.98313904 C3.1359799 121.33566096 3.1359799 121.33566096 3.13142776 122.71550655 C3 125 3 125 2 128 C1.34 128 0.68 128 0 128 C0 85.76 0 43.52 0 0 Z " fill="#101010" transform="translate(530,339)"/>
<path d="M0 0 C2.99628843 1.03320291 3.9378762 1.8980153 5.6134491 4.6486969 C7.15438749 8.37315563 7.37440579 10.97846102 7.37231445 14.99584961 C7.37596512 15.66823166 7.37961578 16.34061371 7.38337708 17.03337097 C7.39143468 19.23995809 7.37791184 21.44579956 7.36328125 23.65234375 C7.362762 25.19641621 7.3632822 26.74048934 7.36479187 28.28456116 C7.36470236 31.51492226 7.35431709 34.74503273 7.33618164 37.9753418 C7.3135143 42.10211942 7.31294922 46.22853063 7.31969929 50.35535336 C7.32305207 53.54251828 7.31638429 56.72960072 7.30657005 59.91674995 C7.30273888 61.43768443 7.30156114 62.95862811 7.3031559 64.47956657 C7.30352964 66.61147185 7.29082066 68.74291978 7.2746582 70.87475586 C7.26774712 72.68960732 7.26774712 72.68960732 7.26069641 74.54112244 C6.97509529 78.33043159 6.16003839 81.39457166 5 85 C4.34 84.67 3.68 84.34 3 84 C3.02141052 83.06118988 3.04282104 82.12237976 3.06488037 81.15512085 C3.26418422 72.29822466 3.4418301 63.44112217 3.59840012 54.58336449 C3.67958348 50.02971593 3.76833243 45.47647958 3.87451172 40.92333984 C3.97674291 36.5274637 4.05891711 32.13162396 4.12732697 27.73509598 C4.15689587 26.0596776 4.19363206 24.38436956 4.2377243 22.70927048 C4.29836083 20.35864498 4.33325489 18.00891409 4.36230469 15.65771484 C4.38603653 14.96863037 4.40976837 14.2795459 4.43421936 13.56958008 C4.45673425 8.56754247 2.94644796 5.94337636 0 2 C0 1.34 0 0.68 0 0 Z " fill="#0E0E0D" transform="translate(370,571)"/>
<path d="M0 0 C0.33 0.66 0.66 1.32 1 2 C0.67 2.66 0.34 3.32 0 4 C-0.10273167 6.06416922 -0.1395276 8.13171536 -0.14717102 10.19842529 C-0.15268605 11.16244038 -0.15268605 11.16244038 -0.1583125 12.14593053 C-0.16936537 14.30920907 -0.17319588 16.47243961 -0.17700195 18.63574219 C-0.18326543 20.1829341 -0.18991213 21.73012449 -0.19691467 23.27731323 C-0.21433594 27.48820193 -0.22487967 31.69907926 -0.2331202 35.90999508 C-0.23826837 38.54029221 -0.2443442 41.1705858 -0.25063133 43.80088043 C-0.26968724 52.0288364 -0.28391708 60.25678338 -0.2922433 68.48475718 C-0.30201581 77.98542742 -0.32833392 87.48586468 -0.36874419 96.98645282 C-0.39889828 104.32750483 -0.41371153 111.66849004 -0.41702431 119.00960279 C-0.41937577 123.39510504 -0.42834829 127.78035851 -0.45348549 132.16579437 C-0.47675874 136.29282181 -0.4810026 140.41943656 -0.47072411 144.5465126 C-0.47022844 146.05981188 -0.47655815 147.57313142 -0.49028015 149.08636856 C-0.50799427 151.15595251 -0.50089749 153.22405458 -0.48774719 155.29364014 C-0.49013555 156.45065807 -0.4925239 157.60767601 -0.49498463 158.7997551 C0.10878141 162.70330904 1.68418139 164.84500373 4 168 C4.33 168.99 4.66 169.98 5 171 C6.01126953 171.12181641 6.01126953 171.12181641 7.04296875 171.24609375 C10.89469141 172.22810494 13.91807836 174.03843189 17.3125 176.0625 C18.28026367 176.62807617 18.28026367 176.62807617 19.26757812 177.20507812 C20.84878152 178.13037493 22.4249146 179.06432681 24 180 C22.515 180.99 22.515 180.99 21 182 C18.30089103 180.51837438 15.6171947 179.01605556 12.9375 177.5 C12.18533203 177.09007812 11.43316406 176.68015625 10.65820312 176.2578125 C5.08415633 173.0726429 0.15779926 169.71645817 -3 164 C-4.01074057 158.75045675 -3.91796656 153.57121931 -3.84228516 148.25244141 C-3.84522518 146.6584594 -3.85120641 145.06448056 -3.85998535 143.47052002 C-3.87475734 139.16058972 -3.84606833 134.8519505 -3.80855227 130.54219866 C-3.77586421 126.02948813 -3.78064426 121.51680491 -3.78060913 117.0039978 C-3.77505255 109.43327106 -3.74278296 101.86303826 -3.69287109 94.29248047 C-3.6352927 85.53312194 -3.61255386 76.77423348 -3.6099869 68.01469672 C-3.60706682 58.68886872 -3.58127644 49.3632142 -3.54742002 40.03745222 C-3.53905097 37.34785831 -3.5347113 34.65828171 -3.531147 31.96867752 C-3.52425882 27.75125439 -3.5019026 23.5341868 -3.46737671 19.31690216 C-3.4569887 17.76648147 -3.45171388 16.21601717 -3.45182419 14.66556168 C-3.45106086 12.55560784 -3.43193708 10.44662014 -3.40786743 8.33682251 C-3.40154108 7.15441294 -3.39521473 5.97200336 -3.38869667 4.7537632 C-3.26042677 3.84502134 -3.13215687 2.93627949 -3 2 C-2.01 1.34 -1.02 0.68 0 0 Z " fill="#161615" transform="translate(558,303)"/>
<path d="M0 0 C3 1 3 1 5 4 C5.24723816 7.06724548 5.24723816 7.06724548 5.24291992 10.88647461 C5.24481827 11.5827446 5.24671661 12.27901459 5.24867249 12.99638367 C5.25237769 15.29848485 5.2416785 17.60027059 5.23046875 19.90234375 C5.22927651 21.50273095 5.22882388 23.10311885 5.2290802 24.70350647 C5.22751569 28.0584857 5.2192295 31.41335817 5.20581055 34.76831055 C5.18883452 39.06690571 5.18499588 43.36538339 5.18575573 47.66400814 C5.18548363 50.96941752 5.17999584 54.27480126 5.17275429 57.5802021 C5.16957384 59.16502247 5.16760167 60.74984573 5.16686058 62.33466911 C5.16468962 64.55120653 5.15592866 66.76762011 5.14526367 68.98413086 C5.14145187 70.24527206 5.13764008 71.50641327 5.13371277 72.80577087 C5.02461271 75.41203347 4.77687922 77.52892378 4 80 C3.34 80 2.68 80 2 80 C1.98969254 79.05674866 1.97938507 78.11349731 1.96876526 77.1416626 C1.87102736 68.25429374 1.76829287 59.36699484 1.66066074 50.47974014 C1.60548624 45.91067139 1.55207498 41.34159618 1.50268555 36.77246094 C1.45496128 32.36336483 1.40261556 27.95434563 1.34705925 23.54534149 C1.32667222 21.86285059 1.30795316 20.18033862 1.29092598 18.49781036 C1.26680103 16.1420175 1.23675768 13.78636914 1.20532227 11.43066406 C1.19668907 10.38625153 1.19668907 10.38625153 1.18788147 9.32073975 C1.13862539 6.07531154 0.98547969 3.10629667 0 0 Z " fill="#0A0A0A" transform="translate(372,114)"/>
<path d="M0 0 C0.598125 0.226875 1.19625 0.45375 1.8125 0.6875 C1.02875 0.914375 0.245 1.14125 -0.5625 1.375 C-3.38541667 2.45833333 -3.38541667 2.45833333 -4.4375 5.1875 C-4.685 6.0125 -4.9325 6.8375 -5.1875 7.6875 C-5.5175 8.3475 -5.8475 9.0075 -6.1875 9.6875 C-6.28871054 11.31649483 -6.32693998 12.94957793 -6.33467102 14.58169556 C-6.34182632 15.61623871 -6.34898163 16.65078186 -6.35635376 17.7166748 C-6.35904266 18.85640747 -6.36173157 19.99614014 -6.36450195 21.17041016 C-6.37107315 22.36729462 -6.37764435 23.56417908 -6.38441467 24.79733276 C-6.4041877 28.77374519 -6.41582133 32.75011719 -6.42578125 36.7265625 C-6.42982911 38.09648026 -6.43394604 39.46639781 -6.43813133 40.83631516 C-6.45718913 47.27558891 -6.47141616 53.7148512 -6.4797433 60.15414774 C-6.48950364 67.57878906 -6.51578882 75.00313128 -6.55624419 82.42766726 C-6.58645764 88.17046277 -6.6012173 93.91317285 -6.60452431 99.65604627 C-6.60686985 103.08366433 -6.61576398 106.5109631 -6.64098549 109.93849564 C-6.66533162 113.76864633 -6.66441926 117.59801827 -6.6574707 121.42822266 C-6.67028076 122.55580994 -6.68309082 123.68339722 -6.69628906 124.84515381 C-6.65174836 131.58969495 -5.79778217 135.94389418 -2.1875 141.6875 C-0.12205106 143.66174869 -0.12205106 143.66174869 1.8125 144.6875 C0.8225 145.0175 -0.1675 145.3475 -1.1875 145.6875 C-8.03371338 139.02145013 -8.03371338 139.02145013 -8.46038628 135.32047558 C-8.47111231 134.37974351 -8.48183834 133.43901144 -8.4928894 132.46977234 C-8.50983353 131.38889343 -8.52677765 130.30801453 -8.54423523 129.19438171 C-8.5526796 128.00834854 -8.56112396 126.82231537 -8.56982422 125.6003418 C-8.58629501 124.35133087 -8.60276581 123.10231995 -8.61973572 121.81546021 C-8.66228013 118.3876469 -8.69575544 114.96000001 -8.72394323 111.53205466 C-8.7421623 109.38968257 -8.76317253 107.24735674 -8.78519058 105.10502052 C-8.86199635 97.62875149 -8.92847339 90.15247195 -8.98535156 82.67602539 C-9.03860606 75.71110295 -9.11425579 68.74666817 -9.20043361 61.78208226 C-9.27347013 55.79990944 -9.33086522 49.81771802 -9.37616169 43.83527118 C-9.40346759 40.26347965 -9.43704436 36.69202001 -9.48635483 33.1204586 C-9.54073976 29.13463793 -9.56261158 25.14899613 -9.58154297 21.1628418 C-9.60213272 19.98288132 -9.62272247 18.80292084 -9.64393616 17.58720398 C-9.64408194 11.27963828 -9.42593136 7.48363944 -5.1875 2.6875 C-4.6925 2.048125 -4.1975 1.40875 -3.6875 0.75 C-2.1875 -0.3125 -2.1875 -0.3125 0 0 Z " fill="#111211" transform="translate(251.1875,330.3125)"/>
<path d="M0 0 C1.875 0.625 1.875 0.625 4 2 C5.80569271 6.30899701 6.24018493 9.96118023 6.20254517 14.60592651 C6.19688034 15.91836838 6.19121552 17.23081024 6.18537903 18.58302307 C6.16886043 20.02524022 6.15214552 21.46745514 6.13525391 22.90966797 C6.1248207 24.43762143 6.11528679 25.96558125 6.10658264 27.49354553 C6.08046957 31.63159655 6.04180158 35.76944566 6.00085878 39.90737295 C5.96017614 44.23548731 5.93106827 48.56367924 5.90072632 52.89187622 C5.8415452 61.08346907 5.77197256 69.27493929 5.69865549 77.46641648 C5.61567652 86.7940088 5.54429868 96.12167865 5.47388959 105.44937301 C5.32882421 124.63303004 5.16920855 143.81654149 5 163 C4.67 163 4.34 163 4 163 C3.99761165 162.20062673 3.99522329 161.40125345 3.99276257 160.57765675 C3.93363908 141.13149625 3.85810602 121.68546297 3.76428509 102.23943806 C3.71931021 92.8354994 3.67989945 83.43159875 3.65356445 74.02758789 C3.63059808 65.83151463 3.59721531 57.63556149 3.55129844 49.43958348 C3.52734783 45.09944223 3.50863112 40.75942009 3.50238609 36.41921425 C3.49634352 32.33405815 3.47637384 28.2492069 3.44572449 24.16416359 C3.43693095 22.66499446 3.43322441 21.16578552 3.43499184 19.66659164 C3.43664368 17.6189047 3.41818434 15.57123103 3.39872742 13.52363586 C3.39411845 12.37784719 3.38950949 11.23205851 3.38476086 10.05154896 C2.95735886 6.66181197 1.87205024 4.81398114 0 2 C0 1.34 0 0.68 0 0 Z " fill="#242323" transform="translate(214,300)"/>
<path d="M0 0 C-1.40171548 4.20514644 -4.03301729 4.98939742 -7.7734375 7.109375 C-11.42837292 10.21286403 -12.76531064 13.88829386 -13.2840023 18.55541801 C-13.40866789 21.64369603 -13.43641672 24.71948804 -13.43237305 27.81030273 C-13.44766052 29.56747871 -13.44766052 29.56747871 -13.46325684 31.3601532 C-13.49336234 35.21801553 -13.5026494 39.07562943 -13.51171875 42.93359375 C-13.52856723 45.61403665 -13.54657281 48.29444679 -13.56611633 50.97486877 C-13.60970202 57.29990121 -13.63829752 63.62490802 -13.66143972 69.95004469 C-13.68853409 77.15449897 -13.73244286 84.35882053 -13.77772844 91.56317985 C-13.87046094 106.37537468 -13.94219371 121.18762668 -14 136 C-14.33 136 -14.66 136 -15 136 C-15.22435597 120.36197695 -15.42523288 104.72383835 -15.59840012 89.08517456 C-15.67935382 81.82335722 -15.76789851 74.56178266 -15.87451172 67.30029297 C-15.96744998 60.96888596 -16.04594377 54.63749001 -16.10732102 48.30569553 C-16.14029966 44.95498209 -16.18250508 41.60501247 -16.2377243 38.25454712 C-16.29824167 34.50817253 -16.33322311 30.76235738 -16.36230469 27.015625 C-16.38603653 25.91294785 -16.40976837 24.81027069 -16.43421936 23.67417908 C-16.45240858 17.25375998 -15.77287801 12.32655758 -12 7 C-8.87581885 4.03603327 -4.49302516 0 0 0 Z " fill="#252524" transform="translate(414,383)"/>
<path d="M0 0 C1.62240885 -0.13879924 3.24857465 -0.23365667 4.875 -0.3125 C5.77992188 -0.37050781 6.68484375 -0.42851562 7.6171875 -0.48828125 C16.37774599 0.77623354 24.49228097 6.93575188 32 11.375 C34.09338831 12.60478256 36.18715291 13.83392476 38.28125 15.0625 C39.36792969 15.70058594 40.45460937 16.33867187 41.57421875 16.99609375 C47.53411431 20.48232684 53.51706801 23.92850054 59.5 27.375 C60.65756053 28.04214029 61.81511283 28.70929486 62.97265625 29.37646484 C65.64814427 30.91815326 68.32390902 32.45935853 71 34 C70.01 34.99 70.01 34.99 69 36 C63.06 32.7 57.12 29.4 51 26 C51 25.34 51 24.68 51 24 C50.319375 23.9175 49.63875 23.835 48.9375 23.75 C45.1253093 22.77667472 42.35929671 21.04192545 39 19 C39 18.34 39 17.68 39 17 C38.27039063 16.88897949 37.54078125 16.77795898 36.7890625 16.66357422 C33.85729367 15.96604729 31.92602079 14.96600245 29.375 13.3828125 C28.5089917 12.85913086 27.6429834 12.33544922 26.75073242 11.79589844 C25.84299072 11.24450195 24.93524902 10.69310547 24 10.125 C16.1022531 5.44394173 9.23432206 2.02793938 0 1 C0 0.67 0 0.34 0 0 Z " fill="#141514" transform="translate(141,262)"/>
<path d="M0 0 C3.46419092 0.19245505 4.74214554 0.72603924 7.14923096 3.28347778 C10.19302582 8.16331759 9.47526503 13.78948655 9.36230469 19.33935547 C9.35313522 20.57893509 9.34396576 21.81851471 9.33451843 23.09565735 C9.30552261 26.48206799 9.25861693 29.86733043 9.20364666 33.25335836 C9.15039009 36.79661927 9.12016327 40.34007595 9.08746338 43.88357544 C9.02211087 50.58787476 8.93613425 57.29174356 8.84269357 63.99570382 C8.73728903 71.63035828 8.65495782 79.26520746 8.5745368 86.9001596 C8.40864567 102.60046325 8.21386939 118.30027217 8 134 C7.67 134 7.34 134 7 134 C6.99780016 133.04335402 6.99780016 133.04335402 6.99555588 132.06738186 C6.95847086 116.53435785 6.89943394 101.0015948 6.81609726 85.46875668 C6.77632276 77.95711354 6.74392227 70.44557492 6.72900391 62.93383789 C6.71597906 56.3850183 6.68899343 49.83642883 6.64538693 43.28773886 C6.62279046 39.82162501 6.6070882 36.3557948 6.60811615 32.88960075 C6.60900295 29.01592627 6.57871505 25.14282974 6.54589844 21.26928711 C6.5509288 20.12561172 6.55595917 18.98193634 6.56114197 17.80360413 C6.46213651 10.2505947 5.49775244 5.49775244 0 0 Z " fill="#131313" transform="translate(367,388)"/>
<path d="M0 0 C4.23874857 0.52811394 7.26608915 1.43628115 10.921875 3.6328125 C11.85273926 4.18461182 12.78360352 4.73641113 13.74267578 5.30493164 C14.73509277 5.9055542 15.72750977 6.50617676 16.75 7.125 C18.8873998 8.39817859 21.0254447 9.67027467 23.1640625 10.94140625 C24.2768457 11.60543457 25.38962891 12.26946289 26.53613281 12.95361328 C30.05065508 15.0396515 33.59569005 17.06977758 37.1484375 19.08984375 C37.73411499 19.42367065 38.31979248 19.75749756 38.92321777 20.10144043 C41.76053511 21.71845708 44.60033585 23.33079415 47.44433594 24.93603516 C52.70622123 27.94341383 57.5231566 30.90268139 62 35 C61.34 35.66 60.68 36.32 60 37 C58.98873047 36.14148438 58.98873047 36.14148438 57.95703125 35.265625 C54.67592917 32.75170267 51.29189032 30.75450131 47.6875 28.75 C47.04232422 28.38648438 46.39714844 28.02296875 45.73242188 27.6484375 C44.15718584 26.76163795 42.57890286 25.88025437 41 25 C41 24.34 41 23.68 41 23 C40.27635254 22.89131592 39.55270508 22.78263184 38.80712891 22.6706543 C35.78920174 21.94963795 33.73198 20.87611239 31.0859375 19.26953125 C30.15910156 18.71330078 29.23226562 18.15707031 28.27734375 17.58398438 C27.31957031 16.99939453 26.36179687 16.41480469 25.375 15.8125 C18.00795516 11.35670805 10.59316466 7.06083702 3 3 C3 2.34 3 1.68 3 1 C2.01 0.67 1.02 0.34 0 0 Z " fill="#181918" transform="translate(552,495)"/>
<path d="M0 0 C4.2983316 0.5302527 7.35157123 1.48488435 11.0625 3.703125 C12.49033813 4.54653442 12.49033813 4.54653442 13.94702148 5.40698242 C14.95450439 6.01517822 15.9619873 6.62337402 17 7.25 C19.13668784 8.52218734 21.27340737 9.79432145 23.41015625 11.06640625 C24.49699707 11.71754395 25.58383789 12.36868164 26.70361328 13.03955078 C29.93154503 14.959288 33.17782965 16.84276689 36.43359375 18.71484375 C37.44357422 19.29911133 38.45355469 19.88337891 39.49414062 20.48535156 C41.4282569 21.60385344 43.3656757 22.71666756 45.30664062 23.82324219 C46.17353516 24.32887695 47.04042969 24.83451172 47.93359375 25.35546875 C48.69728271 25.79528076 49.46097168 26.23509277 50.24780273 26.68823242 C52 28 52 28 53 31 C50.525 30.01 50.525 30.01 48 29 C48 28.34 48 27.68 48 27 C47.27425781 26.88785156 46.54851562 26.77570313 45.80078125 26.66015625 C42.87436007 25.97038613 40.77712191 24.94489186 38.1875 23.4375 C37.39730469 22.98246094 36.60710937 22.52742188 35.79296875 22.05859375 C35.20128906 21.70925781 34.60960937 21.35992187 34 21 C34 20.34 34 19.68 34 19 C33.26354248 18.88229248 32.52708496 18.76458496 31.76831055 18.64331055 C29.00616335 18.00143226 27.13498002 17.14219412 24.70703125 15.70703125 C23.91594971 15.24409668 23.12486816 14.78116211 22.30981445 14.30419922 C21.48570068 13.81193848 20.66158691 13.31967773 19.8125 12.8125 C18.96840576 12.31508301 18.12431152 11.81766602 17.25463867 11.30517578 C15.58713256 10.32107908 13.92146413 9.33386064 12.2578125 8.34326172 C10.35404098 7.21063294 8.44510878 6.0881061 6.53125 4.97265625 C1.56743527 2.05570191 1.56743527 2.05570191 0 1 C0 0.67 0 0.34 0 0 Z " fill="#161616" transform="translate(267,330)"/>
<path d="M0 0 C4.0688124 1.16955273 7.38218041 2.74473833 10.94726562 5.02197266 C17.65074337 9.27089416 22.89443873 11.4248582 31 10 C34.50829714 9.14284151 34.50829714 9.14284151 37 8 C37.495 8.99 37.495 8.99 38 10 C36.65427347 10.68354364 35.2978105 11.3459609 33.9375 12 C33.18339844 12.37125 32.42929687 12.7425 31.65234375 13.125 C26.86830313 14.70324021 23.21166256 14.47401004 18.53515625 12.64453125 C17.38917969 12.03996094 16.24320313 11.43539063 15.0625 10.8125 C14.45712402 10.49514893 13.85174805 10.17779785 13.22802734 9.85083008 C8.67050463 7.43433134 4.22624221 4.95836954 0 2 C0 1.34 0 0.68 0 0 Z " fill="#212121" transform="translate(602,496)"/>
<path d="M0 0 C5.50194307 0.49474837 9.10556024 2.53356209 13.6875 5.375 C15.17914461 6.27694012 16.67135554 7.17794416 18.1640625 8.078125 C19.33437012 8.7887207 19.33437012 8.7887207 20.52832031 9.51367188 C24.84048771 12.10676503 29.20311398 14.6123927 33.5625 17.125 C35.1888584 18.06500674 36.81516551 19.00510222 38.44140625 19.9453125 C39.62755344 20.63029618 40.81373038 21.31522837 42 22 C41.34 22.66 40.68 23.32 40 24 C37.14542982 22.41739337 34.29141904 20.83378048 31.4375 19.25 C30.63763672 18.8065625 29.83777344 18.363125 29.01367188 17.90625 C24.32358843 15.30277511 19.65130495 12.67215909 15 10 C15 9.34 15 8.68 15 8 C13.92685547 7.8453125 13.92685547 7.8453125 12.83203125 7.6875 C9.67150484 6.92025497 7.45017514 5.70262646 4.6875 4 C3.80449219 3.46375 2.92148437 2.9275 2.01171875 2.375 C1.34785156 1.92125 0.68398438 1.4675 0 1 C0 0.67 0 0.34 0 0 Z " fill="#151515" transform="translate(442,250)"/>
<path d="M0 0 C6.34303569 1.76308021 11.62164469 5.13348571 17.19140625 8.54296875 C24.04402049 12.53354037 29.20869628 12.94782593 37 11 C36 14 36 14 34 15 C24.21896703 17.03596609 16.17747329 11.63360379 8 7 C7.07445312 6.48050781 6.14890625 5.96101562 5.1953125 5.42578125 C3 4.125 3 4.125 0 2 C0 1.34 0 0.68 0 0 Z " fill="#191A1A" transform="translate(330,520)"/>
<path d="M0 0 C2.14233398 0.96435547 2.14233398 0.96435547 4.80859375 2.4921875 C5.79585449 3.0500293 6.78311523 3.60787109 7.80029297 4.18261719 C8.85619629 4.78235352 9.91209961 5.38208984 11 6 C13.15567665 7.1727248 15.31325961 8.3419517 17.47265625 9.5078125 C19.66966025 10.71283195 21.86627217 11.91856652 24.0625 13.125 C25.18849609 13.73214844 26.31449219 14.33929688 27.47460938 14.96484375 C28.54646484 15.55652344 29.61832031 16.14820313 30.72265625 16.7578125 C31.68953369 17.2852002 32.65641113 17.81258789 33.65258789 18.35595703 C36.10861121 20.07606738 36.96615325 21.22725692 38 24 C34 22 30 20 26 18 C26 17.34 26 16.68 26 16 C25.2783667 15.88970459 24.5567334 15.77940918 23.81323242 15.66577148 C20.80691281 14.95430454 18.65932502 13.88753077 15.98828125 12.34765625 C15.06595703 11.81849609 14.14363281 11.28933594 13.19335938 10.74414062 C12.24267578 10.18919922 11.29199219 9.63425781 10.3125 9.0625 C9.35021484 8.51142578 8.38792969 7.96035156 7.39648438 7.39257812 C0.28590895 3.28590895 0.28590895 3.28590895 -2 1 C-1.34 0.67 -0.68 0.34 0 0 Z " fill="#131413" transform="translate(453,124)"/>
<path d="M0 0 C4.0980057 0.59882091 7.08243616 1.94944903 10.67578125 3.984375 C11.75150391 4.59023438 12.82722656 5.19609375 13.93554688 5.8203125 C15.04994141 6.45710937 16.16433594 7.09390625 17.3125 7.75 C18.41529297 8.37132812 19.51808594 8.99265625 20.65429688 9.6328125 C23.78119508 11.40254354 26.89458423 13.19287313 30 15 C30.84997559 15.49435547 31.69995117 15.98871094 32.57568359 16.49804688 C34.42126975 17.60515471 36.21800794 18.79319417 38 20 C38 20.66 38 21.32 38 22 C33.85967154 20.45614871 30.06446947 18.48971062 26.1875 16.375 C25.59001953 16.05015625 24.99253906 15.7253125 24.37695312 15.390625 C22.91662865 14.59620849 21.45812509 13.79844624 20 13 C20 12.34 20 11.68 20 11 C19.319375 10.9175 18.63875 10.835 17.9375 10.75 C14.1253093 9.77667472 11.35929671 8.04192545 8 6 C8 5.34 8 4.68 8 4 C7.236875 3.896875 6.47375 3.79375 5.6875 3.6875 C2.82940576 2.95635961 1.84257115 2.23048087 0 0 Z " fill="#131413" transform="translate(303,532)"/>
<path d="M0 0 C4.54066703 0.53323666 7.67577122 1.67895863 11.58984375 4.01953125 C13.13768555 4.93508789 13.13768555 4.93508789 14.71679688 5.86914062 C15.77962891 6.51044922 16.84246094 7.15175781 17.9375 7.8125 C20.05071998 9.06911346 22.1639997 10.32562646 24.27734375 11.58203125 C25.26460449 12.17322754 26.25186523 12.76442383 27.26904297 13.37353516 C30.48973703 15.29167067 33.73600404 17.15674766 37 19 C36.34 19.66 35.68 20.32 35 21 C30.71 18.69 26.42 16.38 22 14 C22 13.34 22 12.68 22 12 C21.27425781 11.88785156 20.54851562 11.77570312 19.80078125 11.66015625 C16.87436007 10.97038613 14.77712191 9.94489186 12.1875 8.4375 C11.39730469 7.98246094 10.60710937 7.52742188 9.79296875 7.05859375 C9.20128906 6.70925781 8.60960937 6.35992187 8 6 C8 5.34 8 4.68 8 4 C7.236875 3.896875 6.47375 3.79375 5.6875 3.6875 C2.82940576 2.95635961 1.84257115 2.23048087 0 0 Z " fill="#141514" transform="translate(251,502)"/>
<path d="M0 0 C0.66 0 1.32 0 2 0 C0.80112859 2.59755472 -0.27853257 4.30174362 -2.25 6.4375 C-5.00338091 12.04259685 -3.62340877 17.12445174 -2 23 C-0.85698846 25.39344898 0.26331554 26.97386813 2 29 C1.01 29 0.02 29 -1 29 C-5.71777716 23.99629695 -7.56767015 19.23126802 -7.46484375 12.421875 C-6.55192686 7.66550127 -3.40027064 3.40027064 0 0 Z " fill="#252626" transform="translate(277,280)"/>
<path d="M0 0 C-0.33 0.99 -0.66 1.98 -1 3 C-1.99 3.33 -2.98 3.66 -4 4 C-4 3.01 -4 2.02 -4 1 C-2 0 -2 0 0 0 Z M-5 3 C-6.14499869 6.43499608 -6.56975436 6.61663819 -9.59765625 8.26171875 C-10.31630859 8.65810547 -11.03496094 9.05449219 -11.77539062 9.46289062 C-12.53013672 9.86701172 -13.28488281 10.27113281 -14.0625 10.6875 C-14.82111328 11.10322266 -15.57972656 11.51894531 -16.36132812 11.94726562 C-18.23633141 12.97321082 -20.11759343 13.98770244 -22 15 C-22.66 14.34 -23.32 13.68 -24 13 C-21.21251481 11.32626249 -18.41935573 9.66223733 -15.625 8 C-14.8309375 7.52304688 -14.036875 7.04609375 -13.21875 6.5546875 C-12.45820313 6.10351562 -11.69765625 5.65234375 -10.9140625 5.1875 C-9.8614624 4.55908203 -9.8614624 4.55908203 -8.78759766 3.91796875 C-7 3 -7 3 -5 3 Z M-24 14 C-24.33 14.99 -24.66 15.98 -25 17 C-27.5625 18.1875 -27.5625 18.1875 -30 19 C-30.33 18.34 -30.66 17.68 -31 17 C-26.25 14 -26.25 14 -24 14 Z " fill="#171817" transform="translate(319,126)"/>
<path d="M0 0 C0.33 0 0.66 0 1 0 C1.03738281 0.86882812 1.07476562 1.73765625 1.11328125 2.6328125 C1.36317343 11.34200661 1.36317343 11.34200661 5 19 C7.27160502 20.6037835 9.48691735 21.767167 12 23 C11.01 23.66 10.02 24.32 9 25 C3.38026087 21.54169899 -0.08038539 18.44852572 -2 12 C-2.61373696 7.20663662 -2.72306737 4.08460105 0 0 Z " fill="#222222" transform="translate(159,222)"/>
<path d="M0 0 C-0.33 0.99 -0.66 1.98 -1 3 C-3.5625 4.1875 -3.5625 4.1875 -6 5 C-6.33 4.34 -6.66 3.68 -7 3 C-2.25 0 -2.25 0 0 0 Z M-7 4 C-8.54550519 8.63651556 -12.28038726 9.88154753 -16.375 12.25 C-17.15617187 12.72179687 -17.93734375 13.19359375 -18.7421875 13.6796875 C-19.495 14.12054687 -20.2478125 14.56140625 -21.0234375 15.015625 C-22.05863525 15.62325684 -22.05863525 15.62325684 -23.11474609 16.24316406 C-25 17 -25 17 -28 16 C-24.15651589 12.74951058 -20.17601471 10.21217131 -15.8125 7.75 C-15.18408203 7.38648438 -14.55566406 7.02296875 -13.90820312 6.6484375 C-9.25352444 4 -9.25352444 4 -7 4 Z " fill="#151515" transform="translate(444,547)"/>
<path d="M0 0 C-0.33 0.99 -0.66 1.98 -1 3 C-1.99 3.33 -2.98 3.66 -4 4 C-4.33 3.34 -4.66 2.68 -5 2 C-2 0 -2 0 0 0 Z M-5 3 C-6.21749372 6.65248116 -7.17523394 7.01121476 -10.40234375 8.953125 C-11.29244141 9.489375 -12.18253906 10.025625 -13.09960938 10.578125 C-14.03611328 11.12984375 -14.97261719 11.6815625 -15.9375 12.25 C-16.87013672 12.8171875 -17.80277344 13.384375 -18.76367188 13.96875 C-23.94597053 17.05639576 -23.94597053 17.05639576 -26 18 C-26.66 17.67 -27.32 17.34 -28 17 C-24.40249549 12.8830697 -20.0520664 10.44951483 -15.375 7.75 C-14.59898437 7.29109375 -13.82296875 6.8321875 -13.0234375 6.359375 C-7.26450893 3 -7.26450893 3 -5 3 Z " fill="#161616" transform="translate(473,530)"/>
<path d="M0 0 C5.75254982 1.11622939 10.64595389 4.52743166 15.6875 7.375 C16.75806641 7.96539062 17.82863281 8.55578125 18.93164062 9.1640625 C19.94806641 9.73640625 20.96449219 10.30875 22.01171875 10.8984375 C22.94459717 11.42099121 23.87747559 11.94354492 24.83862305 12.48193359 C27 14 27 14 28 17 C24.20950293 15.57250019 20.72877544 13.83763458 17.1875 11.875 C16.21167969 11.33617187 15.23585938 10.79734375 14.23046875 10.2421875 C13.49441406 9.83226562 12.75835937 9.42234375 12 9 C12 8.34 12 7.68 12 7 C11.21625 6.855625 10.4325 6.71125 9.625 6.5625 C7 6 7 6 5 5 C5 4.34 5 3.68 5 3 C3.35 2.67 1.7 2.34 0 2 C0 1.34 0 0.68 0 0 Z " fill="#121211" transform="translate(322,361)"/>
<path d="M0 0 C5.85014103 1.59200559 10.70518486 4.55736873 15.875 7.625 C16.75414062 8.140625 17.63328125 8.65625 18.5390625 9.1875 C20.6957056 10.45335573 22.84917988 11.72428407 25 13 C24.01 13.66 23.02 14.32 22 15 C18.32633225 12.88693047 14.66234751 10.75762005 11 8.625 C9.42605469 7.72007812 9.42605469 7.72007812 7.8203125 6.796875 C6.82773438 6.21679688 5.83515625 5.63671875 4.8125 5.0390625 C3.42998047 4.23782959 3.42998047 4.23782959 2.01953125 3.42041016 C1.35308594 2.9516748 0.68664062 2.48293945 0 2 C0 1.34 0 0.68 0 0 Z " fill="#161716" transform="translate(234,595)"/>
<path d="M0 0 C5.85014103 1.59200559 10.70518486 4.55736873 15.875 7.625 C16.75414062 8.140625 17.63328125 8.65625 18.5390625 9.1875 C20.6957056 10.45335573 22.84917988 11.72428407 25 13 C24.01 13.66 23.02 14.32 22 15 C18.32633225 12.88693047 14.66234751 10.75762005 11 8.625 C9.42605469 7.72007812 9.42605469 7.72007812 7.8203125 6.796875 C6.82773437 6.21679688 5.83515625 5.63671875 4.8125 5.0390625 C3.42998047 4.23782959 3.42998047 4.23782959 2.01953125 3.42041016 C1.35308594 2.9516748 0.68664062 2.48293945 0 2 C0 1.34 0 0.68 0 0 Z " fill="#1B1B1B" transform="translate(299,502)"/>
<path d="M0 0 C0.98484375 0.01804687 1.9696875 0.03609375 2.984375 0.0546875 C4.10585938 0.08949219 4.10585938 0.08949219 5.25 0.125 C4.92 0.785 4.59 1.445 4.25 2.125 C1.88671875 2.6171875 1.88671875 2.6171875 -1.0625 3 C-5.550606 3.73737317 -7.97696615 4.31207845 -10.75 8.125 C-11.75 9.125 -12.75 10.125 -13.75 11.125 C-14.74 10.795 -15.73 10.465 -16.75 10.125 C-15.67492371 8.82645279 -14.58956264 7.53641639 -13.5 6.25 C-12.89671875 5.53070313 -12.2934375 4.81140625 -11.671875 4.0703125 C-7.99227871 0.34584308 -5.16374423 -0.12294629 0 0 Z " fill="#1D1D1C" transform="translate(415.75,105.875)"/>
<path d="M0 0 C3.40485673 0.66511877 5.99113056 1.98876465 8.984375 3.72265625 C9.91894531 4.26083984 10.85351562 4.79902344 11.81640625 5.35351562 C12.78449219 5.91748047 13.75257813 6.48144531 14.75 7.0625 C15.73355469 7.63033203 16.71710938 8.19816406 17.73046875 8.78320312 C20.15619626 10.1844729 22.57922121 11.59020387 25 13 C24.34 13.66 23.68 14.32 23 15 C21.02 14.01 19.04 13.02 17 12 C17 11.34 17 10.68 17 10 C16.21625 9.855625 15.4325 9.71125 14.625 9.5625 C12 9 12 9 10 8 C10 7.34 10 6.68 10 6 C8.35 5.67 6.7 5.34 5 5 C5 4.34 5 3.68 5 3 C3.35 2.67 1.7 2.34 0 2 C0 1.34 0 0.68 0 0 Z " fill="#151515" transform="translate(344,555)"/>
<path d="M0 0 C5.74858767 0.45193299 9.5321756 2.82483148 14.25 5.875 C14.96929688 6.32230469 15.68859375 6.76960937 16.4296875 7.23046875 C19.76283209 9.3464538 21.76567292 10.64850939 24 14 C20.0167039 14 19.09013581 12.47210865 16 10 C13.38234176 8.55980142 10.7071031 7.26286695 8 6 C8 5.34 8 4.68 8 4 C7.236875 3.896875 6.47375 3.79375 5.6875 3.6875 C2.82940576 2.95635961 1.84257115 2.23048087 0 0 Z " fill="#1B1B1A" transform="translate(590,205)"/>
<path d="M0 0 C10.48618244 -1.20994413 17.19425398 1.89370941 26 7 C25.67 7.66 25.34 8.32 25 9 C22.644266 8.08810297 20.32090023 7.15691314 18.05078125 6.046875 C12.15361388 3.20945875 6.46447473 1.91831791 0 1 C0 0.67 0 0.34 0 0 Z " fill="#181818" transform="translate(224,492)"/>
<path d="M0 0 C-5.61 2.97 -11.22 5.94 -17 9 C-17.66 8.34 -18.32 7.68 -19 7 C-16.59440447 5.43815812 -14.17816136 3.90101638 -11.75 2.375 C-11.06808594 1.92898438 -10.38617187 1.48296875 -9.68359375 1.0234375 C-9.01972656 0.6109375 -8.35585938 0.1984375 -7.671875 -0.2265625 C-7.0644043 -0.61408691 -6.45693359 -1.00161133 -5.83105469 -1.40087891 C-4 -2 -4 -2 0 0 Z M-21 8 C-20.34 8 -19.68 8 -19 8 C-19.33 8.99 -19.66 9.98 -20 11 C-20.66 11 -21.32 11 -22 11 C-21.67 10.01 -21.34 9.02 -21 8 Z " fill="#171717" transform="translate(623,265)"/>
<path d="M0 0 C-1.54550519 4.63651556 -5.28038726 5.88154753 -9.375 8.25 C-10.15617188 8.72179687 -10.93734375 9.19359375 -11.7421875 9.6796875 C-12.495 10.12054688 -13.2478125 10.56140625 -14.0234375 11.015625 C-15.05863525 11.62325684 -15.05863525 11.62325684 -16.11474609 12.24316406 C-18 13 -18 13 -21 12 C-17.15651589 8.74951058 -13.17601471 6.21217131 -8.8125 3.75 C-8.18408203 3.38648438 -7.55566406 3.02296875 -6.90820312 2.6484375 C-2.25352444 0 -2.25352444 0 0 0 Z " fill="#1C1C1B" transform="translate(599,276)"/>
<path d="M0 0 C-1.2134646 3.6403938 -2.08013783 3.84119166 -5.3125 5.6875 C-10.21976665 8.78970519 -11.88197297 11.65888835 -14 17 C-14.66 17 -15.32 17 -16 17 C-14.65055984 10.86618111 -12.56573881 6.48218456 -7.1875 2.73828125 C-2.57565789 0 -2.57565789 0 0 0 Z " fill="#232322" transform="translate(414,383)"/>
<path d="M0 0 C0.51046875 0.2165625 1.0209375 0.433125 1.546875 0.65625 C8.11148247 3.17035499 14.02489733 3.31865951 21 3 C21 3.66 21 4.32 21 5 C16.82141755 7.08929122 11.54876054 6.44618415 7 6 C4.24563226 4.95049881 2.40621591 3.7499752 0 2 C0 1.34 0 0.68 0 0 Z " fill="#141413" transform="translate(374,364)"/>
<path d="M0 0 C-0.33 0.99 -0.66 1.98 -1 3 C-1.99 3.33 -2.98 3.66 -4 4 C-4.33 3.34 -4.66 2.68 -5 2 C-2 0 -2 0 0 0 Z M-5 3 C-6.34833398 7.04500194 -8.23264433 7.63621086 -11.875 9.75 C-12.94492187 10.38421875 -14.01484375 11.0184375 -15.1171875 11.671875 C-18 13 -18 13 -21 12 C-16.97806144 8.49702126 -10.60566856 3 -5 3 Z " fill="#1C1C1C" transform="translate(518,504)"/>
<path d="M0 0 C0.99 0.33 1.98 0.66 3 1 C2.67257813 1.66386719 2.34515625 2.32773437 2.0078125 3.01171875 C0.77576626 6.66487912 0.78040604 10.01055042 0.875 13.8125 C0.88853516 14.85180664 0.88853516 14.85180664 0.90234375 15.91210938 C0.92573843 17.60822395 0.96160359 19.30415871 1 21 C-0.48046875 19.8984375 -0.48046875 19.8984375 -2 18 C-2.36328125 15.0390625 -2.36328125 15.0390625 -2.3125 11.625 C-2.30863281 10.50351562 -2.30476562 9.38203125 -2.30078125 8.2265625 C-2.00825742 5.08857964 -1.33267928 2.83526189 0 0 Z " fill="#1B1C1B" transform="translate(160,531)"/>
<path d="M0 0 C10.03855387 -1.05404816 10.03855387 -1.05404816 14.5078125 1.34765625 C18.51817755 4.71429112 20.97042891 7.72344814 22 13 C21.01 12.67 20.02 12.34 19 12 C18.9175 11.21625 18.835 10.4325 18.75 9.625 C18.28748634 6.91265367 18.28748634 6.91265367 16.25 5.875 C15.5075 5.58625 14.765 5.2975 14 5 C13.278125 4.484375 12.55625 3.96875 11.8125 3.4375 C7.96396917 1.47047313 4.26880048 1.26970635 0 1 C0 0.67 0 0.34 0 0 Z " fill="#191A19" transform="translate(624,263)"/>
<path d="M0 0 C5.5338604 0.49132405 9.26010874 2.58002372 13.875 5.4375 C14.56335938 5.84548828 15.25171875 6.25347656 15.9609375 6.67382812 C17.68053839 7.71957747 19.34607742 8.85319618 21 10 C21 10.66 21 11.32 21 12 C15.84313143 10.53005148 11.65471168 8.21589873 7.125 5.4375 C6.43664062 5.02564453 5.74828125 4.61378906 5.0390625 4.18945312 C3.33910553 3.15902286 1.66662278 2.08351684 0 1 C0 0.67 0 0.34 0 0 Z " fill="#151515" transform="translate(424,109)"/>
<path d="M0 0 C4.39383706 1.59623144 8.28995807 3.78024333 12.3125 6.125 C12.95767578 6.49753906 13.60285156 6.87007812 14.26757812 7.25390625 C15.84675945 8.16632213 17.42361864 9.08275509 19 10 C18.01 10.66 17.02 11.32 16 12 C13.51415941 10.57310956 11.03669439 9.13433171 8.5625 7.6875 C7.85544922 7.28337891 7.14839844 6.87925781 6.41992188 6.46289062 C5.74638672 6.06650391 5.07285156 5.67011719 4.37890625 5.26171875 C3.7557251 4.90037842 3.13254395 4.53903809 2.49047852 4.16674805 C1 3 1 3 0 0 Z " fill="#1B1C1B" transform="translate(311,639)"/>
<path d="M0 0 C4.39383706 1.59623144 8.28995807 3.78024333 12.3125 6.125 C12.95767578 6.49753906 13.60285156 6.87007813 14.26757812 7.25390625 C15.84675945 8.16632213 17.42361864 9.08275509 19 10 C18.01 10.66 17.02 11.32 16 12 C13.51415941 10.57310956 11.03669439 9.13433171 8.5625 7.6875 C7.85544922 7.28337891 7.14839844 6.87925781 6.41992188 6.46289062 C5.74638672 6.06650391 5.07285156 5.67011719 4.37890625 5.26171875 C3.7557251 4.90037842 3.13254395 4.53903809 2.49047852 4.16674805 C1 3 1 3 0 0 Z " fill="#1A1A1A" transform="translate(304,323)"/>
<path d="M0 0 C-0.66 1.32 -1.32 2.64 -2 4 C-2.99 3.67 -3.98 3.34 -5 3 C-2.25 0 -2.25 0 0 0 Z M-5 3 C-5.33 3.99 -5.66 4.98 -6 6 C-8.5625 7.1875 -8.5625 7.1875 -11 8 C-11.33 7.34 -11.66 6.68 -12 6 C-7.25 3 -7.25 3 -5 3 Z M-12 7 C-13 10 -13 10 -15.375 11.75 C-18 13 -18 13 -21 12 C-14.40909091 7 -14.40909091 7 -12 7 Z " fill="#151515" transform="translate(276,151)"/>
<path d="M0 0 C4.53847198 1.34927545 8.31932246 3.19159348 12.375 5.625 C13.43460937 6.25664062 14.49421875 6.88828125 15.5859375 7.5390625 C16.38257813 8.02117187 17.17921875 8.50328125 18 9 C17.01 9.66 16.02 10.32 15 11 C12.4945424 9.55041382 9.99581801 8.09101202 7.5 6.625 C6.78457031 6.2125 6.06914062 5.8 5.33203125 5.375 C3.52075689 4.30548562 1.75595814 3.1580962 0 2 C0 1.34 0 0.68 0 0 Z " fill="#181818" transform="translate(254,476)"/>
<path d="M0 0 C4.53847198 1.34927545 8.31932246 3.19159348 12.375 5.625 C13.43460937 6.25664062 14.49421875 6.88828125 15.5859375 7.5390625 C16.38257813 8.02117187 17.17921875 8.50328125 18 9 C17.01 9.66 16.02 10.32 15 11 C12.4945424 9.55041382 9.99581801 8.09101202 7.5 6.625 C6.78457031 6.2125 6.06914062 5.8 5.33203125 5.375 C3.52075689 4.30548562 1.75595814 3.1580962 0 2 C0 1.34 0 0.68 0 0 Z " fill="#191A19" transform="translate(466,236)"/>
<path d="M0 0 C-0.33 0.99 -0.66 1.98 -1 3 C-1.99 3.33 -2.98 3.66 -4 4 C-4 3.01 -4 2.02 -4 1 C-2 0 -2 0 0 0 Z M-5 3 C-6.25460729 6.76382187 -7.52618612 7.25041838 -10.875 9.25 C-11.75929687 9.79140625 -12.64359375 10.3328125 -13.5546875 10.890625 C-16 12 -16 12 -19 11 C-9.57142857 3 -9.57142857 3 -5 3 Z " fill="#121211" transform="translate(205,192)"/>
<path d="M0 0 C-3.56687122 3.04408304 -7.09510916 5.21082201 -11.3125 7.25 C-12.38113281 7.77078125 -13.44976562 8.2915625 -14.55078125 8.828125 C-15.76314453 9.40820312 -15.76314453 9.40820312 -17 10 C-17.66 9.34 -18.32 8.68 -19 8 C-17.68 8 -16.36 8 -15 8 C-15 7.34 -15 6.68 -15 6 C-12.48046875 4.23828125 -12.48046875 4.23828125 -9.1875 2.3125 C-8.10855469 1.66925781 -7.02960938 1.02601563 -5.91796875 0.36328125 C-3 -1 -3 -1 0 0 Z " fill="#151716" transform="translate(440,524)"/>
<path d="M0 0 C4.03321763 1.21934486 7.54269479 2.55954927 11 5 C11 5.66 11 6.32 11 7 C12.65 7.33 14.3 7.66 16 8 C15.67 8.99 15.34 9.98 15 11 C12.4945424 9.55041382 9.99581801 8.09101202 7.5 6.625 C6.78457031 6.2125 6.06914062 5.8 5.33203125 5.375 C3.52075689 4.30548562 1.75595814 3.1580962 0 2 C0 1.34 0 0.68 0 0 Z " fill="#1A1A19" transform="translate(355,353)"/>
<path d="M0 0 C4.30764815 1.56641751 8.06171464 3.68336156 12 6 C12 6.66 12 7.32 12 8 C13.65 8.33 15.3 8.66 17 9 C16.01 9.66 15.02 10.32 14 11 C11.84740907 9.73958167 9.70337538 8.46754172 7.5625 7.1875 C6.95083984 6.83107422 6.33917969 6.47464844 5.70898438 6.10742188 C1.11328125 3.33984375 1.11328125 3.33984375 0 0 Z " fill="#181818" transform="translate(280,621)"/>
<path d="M0 0 C-5.28 2.97 -10.56 5.94 -16 9 C-16.66 8.34 -17.32 7.68 -18 7 C-15.75820623 5.63034792 -13.50827662 4.27947192 -11.25 2.9375 C-10.61578125 2.54755859 -9.9815625 2.15761719 -9.328125 1.75585938 C-4.453125 -1.11328125 -4.453125 -1.11328125 0 0 Z " fill="#171717" transform="translate(536,496)"/>
<path d="M0 0 C0.33 0 0.66 0 1 0 C1.10957031 0.88042969 1.21914062 1.76085937 1.33203125 2.66796875 C1.49058594 3.82941406 1.64914063 4.99085938 1.8125 6.1875 C1.96332031 7.33605469 2.11414063 8.48460937 2.26953125 9.66796875 C3.42375292 14.9329478 5.50780452 18.05683745 10 21 C9.01 21.33 8.02 21.66 7 22 C0.07307093 15.25535853 0.07307093 15.25535853 -0.1953125 10.64453125 C-0.17210937 9.37996094 -0.14890625 8.11539062 -0.125 6.8125 C-0.10695312 5.54019531 -0.08890625 4.26789063 -0.0703125 2.95703125 C-0.04710937 1.98121094 -0.02390625 1.00539063 0 0 Z " fill="#191A19" transform="translate(243,454)"/>
<path d="M0 0 C4.65999254 0.50562969 7.56373044 1.66247482 11.375 4.375 C12.68597656 5.28378906 12.68597656 5.28378906 14.0234375 6.2109375 C14.67570313 6.80132813 15.32796875 7.39171875 16 8 C16 8.99 16 9.98 16 11 C14.26847042 9.92044741 12.53988316 8.83617488 10.8125 7.75 C9.84957031 7.14671875 8.88664063 6.5434375 7.89453125 5.921875 C5.12594673 4.08362455 2.56042049 2.11574051 0 0 Z " fill="#202020" transform="translate(597,521)"/>
<path d="M0 0 C1.98986175 1.49151895 3.90408816 3.025315 5.77734375 4.66015625 C4.78734375 6.14515625 4.78734375 6.14515625 3.77734375 7.66015625 C3.44734375 6.67015625 3.11734375 5.68015625 2.77734375 4.66015625 C-2.65859207 0.84030946 -8.80642913 0.96124134 -15.22265625 0.66015625 C-15.22265625 0.33015625 -15.22265625 0.00015625 -15.22265625 -0.33984375 C-4.14836133 -2.50068178 -4.14836133 -2.50068178 0 0 Z " fill="#131413" transform="translate(524.22265625,329.33984375)"/>
<path d="M0 0 C3.96 0 7.92 0 12 0 C11.67 0.99 11.34 1.98 11 3 C7.37 3 3.74 3 0 3 C0 2.01 0 1.02 0 0 Z " fill="#1C1C1C" transform="translate(538,277)"/>
<path d="M0 0 C-1.15374939 3.46124816 -1.87701971 3.88312583 -4.875 5.75 C-5.57367188 6.19859375 -6.27234375 6.6471875 -6.9921875 7.109375 C-9 8 -9 8 -12 7 C-3.55172414 0 -3.55172414 0 0 0 Z M-14 7 C-13.34 7 -12.68 7 -12 7 C-12.33 7.99 -12.66 8.98 -13 10 C-13.99 9.67 -14.98 9.34 -16 9 C-15.34 8.34 -14.68 7.68 -14 7 Z " fill="#1D1E1D" transform="translate(224,181)"/>
<path d="M0 0 C0.33 0 0.66 0 1 0 C1.03758423 1.01368652 1.03758423 1.01368652 1.07592773 2.04785156 C1.19210742 5.1154168 1.31473437 8.18269158 1.4375 11.25 C1.47681641 12.31347656 1.51613281 13.37695312 1.55664062 14.47265625 C1.59853516 15.49746094 1.64042969 16.52226562 1.68359375 17.578125 C1.72025146 18.52075195 1.75690918 19.46337891 1.79467773 20.43457031 C1.97939228 22.74251377 2.35861612 24.78140524 3 27 C2.34 27.33 1.68 27.66 1 28 C-0.73052187 24.27612956 -1.20493549 21.56834535 -0.9765625 17.48046875 C-0.89921875 15.9480957 -0.89921875 15.9480957 -0.8203125 14.38476562 C-0.75585938 13.32966797 -0.69140625 12.27457031 -0.625 11.1875 C-0.56828125 10.11306641 -0.5115625 9.03863281 -0.453125 7.93164062 C-0.31207992 5.28704534 -0.16071024 2.64346106 0 0 Z " fill="#1F1F1F" transform="translate(556,442)"/>
<path d="M0 0 C6.97986313 0.31021614 12.07291522 3.4951958 18 7 C17.34 7.66 16.68 8.32 16 9 C15.26394531 8.59007812 14.52789062 8.18015625 13.76953125 7.7578125 C12.30580078 6.94957031 12.30580078 6.94957031 10.8125 6.125 C9.84957031 5.59132812 8.88664062 5.05765625 7.89453125 4.5078125 C5.30260482 3.1576322 2.73238902 2.02901671 0 1 C0 0.67 0 0.34 0 0 Z " fill="#161615" transform="translate(392,222)"/>
<path d="M0 0 C4.75416122 0.49493467 7.55220583 1.72123406 11.375 4.5625 C12.24898438 5.20316406 13.12296875 5.84382813 14.0234375 6.50390625 C14.67570312 6.99761719 15.32796875 7.49132812 16 8 C15.34 8.66 14.68 9.32 14 10 C9.17403931 6.84577733 4.42442592 3.71080883 0 0 Z " fill="#1B1B1B" transform="translate(485,275)"/>
<path d="M0 0 C3.69876091 1.37287342 6.9514476 3.06355453 10.3125 5.125 C11.19550781 5.66382813 12.07851562 6.20265625 12.98828125 6.7578125 C13.65214844 7.16773438 14.31601563 7.57765625 15 8 C13.32421875 8.671875 13.32421875 8.671875 11 9 C8.45703125 7.890625 8.45703125 7.890625 5.8125 6.25 C4.93207031 5.71890625 4.05164063 5.1878125 3.14453125 4.640625 C1 3 1 3 0 0 Z " fill="#171817" transform="translate(207,267)"/>
<path d="M0 0 C1.75570313 0.02707031 1.75570313 0.02707031 3.546875 0.0546875 C4.88492187 0.08949219 4.88492187 0.08949219 6.25 0.125 C2.83788584 2.39974277 0.5931471 2.69129644 -3.4375 3.25 C-4.61699219 3.41757813 -5.79648437 3.58515625 -7.01171875 3.7578125 C-7.91535156 3.87898437 -8.81898438 4.00015625 -9.75 4.125 C-10.08 3.465 -10.41 2.805 -10.75 2.125 C-7.15537669 -0.13498595 -4.18404325 -0.08368087 0 0 Z " fill="#202020" transform="translate(387.75,219.875)"/>
<path d="M0 0 C5.96652354 1.57013777 10.82909025 4.75029782 16 8 C12.25 9.125 12.25 9.125 10 8 C10 7.34 10 6.68 10 6 C8.9171875 5.8453125 8.9171875 5.8453125 7.8125 5.6875 C4.72206579 4.93206053 2.58256159 3.84468685 0 2 C0 1.34 0 0.68 0 0 Z " fill="#111111" transform="translate(583,512)"/>
<path d="M0 0 C2.3125 0.8125 2.3125 0.8125 4 2 C1.36 2.99 -1.28 3.98 -4 5 C-4.33 4.34 -4.66 3.68 -5 3 C-2.75 1.375 -2.75 1.375 0 0 Z M-5 4 C-5.33 4.99 -5.66 5.98 -6 7 C-8.5625 8.1875 -8.5625 8.1875 -11 9 C-11.33 8.34 -11.66 7.68 -12 7 C-7.25 4 -7.25 4 -5 4 Z " fill="#1B1C1B" transform="translate(350,107)"/>
<path d="M0 0 C5.31027254 1.46032495 9.46330032 3.98320986 14 7 C12.328125 7.67578125 12.328125 7.67578125 10 8 C7.421875 6.85546875 7.421875 6.85546875 4.75 5.1875 C3.85796875 4.64480469 2.9659375 4.10210937 2.046875 3.54296875 C1.37140625 3.03378906 0.6959375 2.52460938 0 2 C0 1.34 0 0.68 0 0 Z " fill="#181818" transform="translate(523,269)"/>
<path d="M0 0 C4.14298667 0.59834725 7.18194377 2.00664285 10.8125 4.0625 C11.78832031 4.61035156 12.76414062 5.15820312 13.76953125 5.72265625 C14.50558594 6.14417969 15.24164063 6.56570312 16 7 C15.67 7.66 15.34 8.32 15 9 C10.25 7.125 10.25 7.125 8 6 C8 5.34 8 4.68 8 4 C7.236875 3.896875 6.47375 3.79375 5.6875 3.6875 C2.82940576 2.95635961 1.84257115 2.23048087 0 0 Z " fill="#131413" transform="translate(418,236)"/>
<path d="M0 0 C3 1 3 1 5 4 C5.07905064 6.33199388 5.08798769 8.66832622 5 11 C4.01 11.33 3.02 11.66 2 12 C1.34 8.04 0.68 4.08 0 0 Z " fill="#1B1B1A" transform="translate(372,114)"/>
<path d="M0 0 C4.8274799 1.41292095 8.7162359 3.42974154 13 6 C12.01 6.66 11.02 7.32 10 8 C8.32819726 7.05065487 6.66266064 6.09026687 5 5.125 C4.071875 4.59132813 3.14375 4.05765625 2.1875 3.5078125 C1.465625 3.01023437 0.74375 2.51265625 0 2 C0 1.34 0 0.68 0 0 Z " fill="#1B1B1B" transform="translate(203,577)"/>
<path d="M0 0 C-0.33 0.99 -0.66 1.98 -1 3 C-1.99 3.33 -2.98 3.66 -4 4 C-4.33 3.34 -4.66 2.68 -5 2 C-2 0 -2 0 0 0 Z M-5 3 C-6 6 -6 6 -8.375 7.75 C-11 9 -11 9 -14 8 C-7.87096774 3 -7.87096774 3 -5 3 Z " fill="#1A1A1A" transform="translate(191,512)"/>
<path d="M0 0 C3.68592365 0.20477354 4.82052927 0.80636053 7.375 3.5625 C9.49829191 8.05407905 8.99135832 10.20843479 8 15 C7.67 15 7.34 15 7 15 C6.731875 13.783125 6.46375 12.56625 6.1875 11.3125 C5.04752731 6.74452433 3.35612328 3.35612328 0 0 Z " fill="#1F1F1F" transform="translate(367,388)"/>
<path d="M0 0 C-4.01254885 3.51098025 -8.20983041 5.76537994 -13 8 C-13.66 7.34 -14.32 6.68 -15 6 C-13.68 6 -12.36 6 -11 6 C-11 5.34 -11 4.68 -11 4 C-9.35546875 2.67578125 -9.35546875 2.67578125 -7.1875 1.3125 C-6.47980469 0.85488281 -5.77210938 0.39726562 -5.04296875 -0.07421875 C-3 -1 -3 -1 0 0 Z " fill="#171817" transform="translate(429,349)"/>
<path d="M0 0 C1.98 0.99 1.98 0.99 4 2 C4 6.29 4 10.58 4 15 C3.34 14.67 2.68 14.34 2 14 C1.62109375 11.85546875 1.62109375 11.85546875 1.4375 9.1875 C1.20718875 6.00544462 0.86713747 3.0743965 0 0 Z " fill="#171818" transform="translate(500,286)"/>
<path d="M0 0 C-0.66 1.32 -1.32 2.64 -2 4 C-2.99 3.67 -3.98 3.34 -5 3 C-2.25 0 -2.25 0 0 0 Z M-5 3 C-6 6 -6 6 -8.375 7.75 C-11 9 -11 9 -14 8 C-7.87096774 3 -7.87096774 3 -5 3 Z " fill="#1B1C1B" transform="translate(179,207)"/>
<path d="M0 0 C5.75 1.875 5.75 1.875 8 3 C9.70363822 3.22622081 11.41328701 3.40888473 13.125 3.5625 C14.03507812 3.64628906 14.94515625 3.73007812 15.8828125 3.81640625 C16.58148438 3.87699219 17.28015625 3.93757812 18 4 C18 4.33 18 4.66 18 5 C10.58637386 6.39765083 6.46882605 5.95317148 0 2 C0 1.34 0 0.68 0 0 Z " fill="#171717" transform="translate(345,659)"/>
<path d="M0 0 C-4.01254885 3.51098025 -8.20983041 5.76537994 -13 8 C-13 7.01 -13 6.02 -13 5 C-10.91796875 3.359375 -10.91796875 3.359375 -8.1875 1.75 C-7.29417969 1.20859375 -6.40085937 0.6671875 -5.48046875 0.109375 C-3 -1 -3 -1 0 0 Z " fill="#161716" transform="translate(600,562)"/>
<path d="M0 0 C4.8274799 1.41292095 8.7162359 3.42974154 13 6 C12.01 6.66 11.02 7.32 10 8 C8.32819726 7.05065487 6.66266064 6.09026687 5 5.125 C4.071875 4.59132813 3.14375 4.05765625 2.1875 3.5078125 C1.465625 3.01023437 0.74375 2.51265625 0 2 C0 1.34 0 0.68 0 0 Z " fill="#1A1A1A" transform="translate(170,558)"/>
<path d="M0 0 C-0.66 1.32 -1.32 2.64 -2 4 C-2.99 3.67 -3.98 3.34 -5 3 C-2.25 0 -2.25 0 0 0 Z M-5 3 C-6 6 -6 6 -8.375 7.75 C-11 9 -11 9 -14 8 C-7.40909091 3 -7.40909091 3 -5 3 Z " fill="#171716" transform="translate(464,354)"/>
<path d="M0 0 C4.8274799 1.41292095 8.7162359 3.42974154 13 6 C12.01 6.66 11.02 7.32 10 8 C8.32819726 7.05065487 6.66266064 6.09026687 5 5.125 C4.071875 4.59132813 3.14375 4.05765625 2.1875 3.5078125 C1.465625 3.01023437 0.74375 2.51265625 0 2 C0 1.34 0 0.68 0 0 Z " fill="#181818" transform="translate(341,345)"/>
<path d="M0 0 C4.0357846 1.22012093 7.55406335 2.53861668 11 5 C11.33 5.99 11.66 6.98 12 8 C7.69235185 6.43358249 3.93828536 4.31663844 0 2 C0 1.34 0 0.68 0 0 Z " fill="#131313" transform="translate(299,502)"/>
<path d="M0 0 C-1 3 -1 3 -3.28515625 4.38671875 C-4.20167969 4.81597656 -5.11820313 5.24523437 -6.0625 5.6875 C-6.98160156 6.12449219 -7.90070313 6.56148438 -8.84765625 7.01171875 C-9.55792969 7.33785156 -10.26820313 7.66398437 -11 8 C-11.66 7.34 -12.32 6.68 -13 6 C-11.21118264 4.99491199 -9.41885304 3.99607264 -7.625 3 C-6.62726563 2.443125 -5.62953125 1.88625 -4.6015625 1.3125 C-2 0 -2 0 0 0 Z " fill="#1B1C1B" transform="translate(166,500)"/>
<path d="M0 0 C4.0357846 1.22012093 7.55406335 2.53861668 11 5 C11.33 5.99 11.66 6.98 12 8 C7.69235185 6.43358249 3.93828536 4.31663844 0 2 C0 1.34 0 0.68 0 0 Z " fill="#121312" transform="translate(602,496)"/>
<path d="M0 0 C2.8203125 -0.29296875 2.8203125 -0.29296875 6.125 -0.1875 C7.76855469 -0.14689453 7.76855469 -0.14689453 9.4453125 -0.10546875 C10.28835938 -0.07066406 11.13140625 -0.03585937 12 0 C12 0.99 12 1.98 12 3 C7.38 3 2.76 3 -2 3 C-1.34 2.01 -0.68 1.02 0 0 Z " fill="#1A1A1A" transform="translate(539,492)"/>
<path d="M0 0 C-0.33 0.99 -0.66 1.98 -1 3 C-1.99 3.33 -2.98 3.66 -4 4 C-4.33 3.34 -4.66 2.68 -5 2 C-2 0 -2 0 0 0 Z M-5 3 C-6.33332095 6.99996286 -8.4957827 7.83782337 -12 10 C-12 9.01 -12 8.02 -12 7 C-7.65714286 3 -7.65714286 3 -5 3 Z " fill="#222221" transform="translate(571,292)"/>
<path d="M0 0 C0.66 0.33 1.32 0.66 2 1 C0.02 4.63 -1.96 8.26 -4 12 C-4.66 11.34 -5.32 10.68 -6 10 C-5.38003922 8.70590711 -4.75383647 7.41480327 -4.125 6.125 C-3.77695312 5.40570312 -3.42890625 4.68640625 -3.0703125 3.9453125 C-2 2 -2 2 0 0 Z " fill="#0F0F0F" transform="translate(404,570)"/>
<path d="M0 0 C4.05281712 1.22527029 7.44360764 2.69880494 11 5 C10.67 5.99 10.34 6.98 10 8 C8.32819726 7.05065487 6.66266064 6.09026687 5 5.125 C4.071875 4.59132813 3.14375 4.05765625 2.1875 3.5078125 C1.465625 3.01023437 0.74375 2.51265625 0 2 C0 1.34 0 0.68 0 0 Z " fill="#161616" transform="translate(184,566)"/>
<path d="M0 0 C0.99 0.33 1.98 0.66 3 1 C4.00496852 4.01490557 4.10335303 6.04181692 4.0625 9.1875 C4.05347656 10.08855469 4.04445313 10.98960937 4.03515625 11.91796875 C4.02355469 12.60503906 4.01195312 13.29210937 4 14 C1.37548383 11.37548383 1.4167132 9.5122172 0.875 5.875 C0.70742188 4.77929688 0.53984375 3.68359375 0.3671875 2.5546875 C0.24601563 1.71164062 0.12484375 0.86859375 0 0 Z " fill="#181817" transform="translate(613,533)"/>
<path d="M0 0 C5.28137429 0.51525603 8.57221156 2.25477117 13 5 C12.67 5.66 12.34 6.32 12 7 C7.69235185 5.43358249 3.93828536 3.31663844 0 1 C0 0.67 0 0.34 0 0 Z " fill="#181818" transform="translate(289,524)"/>
<path d="M0 0 C-5.86516854 4.88764045 -5.86516854 4.88764045 -9 6 C-10.34353414 5.71050922 -11.67965718 5.38155437 -13 5 C-11.40377344 3.96679519 -9.79770894 2.94877571 -8.1875 1.9375 C-7.29417969 1.36902344 -6.40085937 0.80054688 -5.48046875 0.21484375 C-3 -1 -3 -1 0 0 Z " fill="#151615" transform="translate(443,341)"/>
<path d="M0 0 C-1 3 -1 3 -3.28515625 4.38671875 C-4.20167969 4.81597656 -5.11820313 5.24523437 -6.0625 5.6875 C-6.98160156 6.12449219 -7.90070313 6.56148438 -8.84765625 7.01171875 C-9.55792969 7.33785156 -10.26820313 7.66398437 -11 8 C-11 7.01 -11 6.02 -11 5 C-9.54462432 4.16151196 -8.08559627 3.32936066 -6.625 2.5 C-5.81289062 2.0359375 -5.00078125 1.571875 -4.1640625 1.09375 C-2 0 -2 0 0 0 Z " fill="#181817" transform="translate(252,269)"/>
<path d="M0 0 C-1 3 -1 3 -3.28515625 4.38671875 C-4.20167969 4.81597656 -5.11820313 5.24523437 -6.0625 5.6875 C-6.98160156 6.12449219 -7.90070313 6.56148437 -8.84765625 7.01171875 C-9.55792969 7.33785156 -10.26820313 7.66398438 -11 8 C-11.33 7.34 -11.66 6.68 -12 6 C-10.37829621 4.99466333 -8.75252763 3.99588093 -7.125 3 C-5.76761719 2.1646875 -5.76761719 2.1646875 -4.3828125 1.3125 C-2 0 -2 0 0 0 Z " fill="#1A1B1A" transform="translate(236,174)"/>
<path d="M0 0 C-1.15374939 3.46124816 -1.87701971 3.88312583 -4.875 5.75 C-5.57367188 6.19859375 -6.27234375 6.6471875 -6.9921875 7.109375 C-9 8 -9 8 -12 7 C-3.55172414 0 -3.55172414 0 0 0 Z " fill="#151615" transform="translate(338,115)"/>
<path d="M0 0 C0.33 0.66 0.66 1.32 1 2 C0.67 2.66 0.34 3.32 0 4 C-0.2322646 6.71262116 -0.41936235 9.40773126 -0.5625 12.125 C-0.60568359 12.87910156 -0.64886719 13.63320313 -0.69335938 14.41015625 C-0.7994832 16.27321888 -0.90025001 18.13658524 -1 20 C-1.33 20 -1.66 20 -2 20 C-2.24798276 17.04213336 -2.47411854 14.08538702 -2.6875 11.125 C-2.76033203 10.28324219 -2.83316406 9.44148438 -2.90820312 8.57421875 C-2.96298828 7.76855469 -3.01777344 6.96289062 -3.07421875 6.1328125 C-3.13182373 5.38918457 -3.18942871 4.64555664 -3.2487793 3.87939453 C-3.16668213 3.25919434 -3.08458496 2.63899414 -3 2 C-2.01 1.34 -1.02 0.68 0 0 Z " fill="#1C1C1C" transform="translate(558,303)"/>
<path d="M0 0 C3.96 0 7.92 0 12 0 C11.01 1.485 11.01 1.485 10 3 C7.6171875 3.29296875 7.6171875 3.29296875 4.875 3.1875 C3.96492187 3.16042969 3.05484375 3.13335937 2.1171875 3.10546875 C1.41851562 3.07066406 0.71984375 3.03585937 0 3 C0 2.01 0 1.02 0 0 Z " fill="#232323" transform="translate(225,277)"/>
<path d="M0 0 C-0.66 1.32 -1.32 2.64 -2 4 C-2.99 3.67 -3.98 3.34 -5 3 C-2.25 0 -2.25 0 0 0 Z M-5 3 C-5.33 3.99 -5.66 4.98 -6 6 C-8.5625 7.1875 -8.5625 7.1875 -11 8 C-11.33 7.34 -11.66 6.68 -12 6 C-7.25 3 -7.25 3 -5 3 Z " fill="#171816" transform="translate(308,263)"/>
<path d="M0 0 C0.99 0.33 1.98 0.66 3 1 C1.76302083 2.46484375 0.52604167 3.9296875 -0.7109375 5.39453125 C-1.89201099 6.8655046 -2.95358529 8.43037794 -4 10 C-4.8125 8.375 -4.8125 8.375 -5 6 C-3.53181864 3.75390165 -1.84147142 1.97621323 0 0 Z " fill="#0D0D0D" transform="translate(164,215)"/>
<path d="M0 0 C2 2 2 2 3.375 4.9375 C4.9802567 7.96279147 6.14043055 9.22509482 9 11 C8.01 11.33 7.02 11.66 6 12 C0.09230769 6.83076923 0.09230769 6.83076923 -0.375 2.625 C-0.25125 1.75875 -0.1275 0.8925 0 0 Z " fill="#161616" transform="translate(400,651)"/>
<path d="M0 0 C4.50802601 1.25805377 7.4912812 2.90407165 11 6 C8 7 8 7 5.95703125 6.07421875 C4.89548828 5.38779297 4.89548828 5.38779297 3.8125 4.6875 C3.09707031 4.23761719 2.38164062 3.78773438 1.64453125 3.32421875 C1.10183594 2.88722656 0.55914062 2.45023438 0 2 C0 1.34 0 0.68 0 0 Z " fill="#1C1C1C" transform="translate(234,595)"/>
<path d="M0 0 C4.50802601 1.25805377 7.4912812 2.90407165 11 6 C8 7 8 7 5.95703125 6.07421875 C4.89548828 5.38779297 4.89548828 5.38779297 3.8125 4.6875 C3.09707031 4.23761719 2.38164062 3.78773438 1.64453125 3.32421875 C1.10183594 2.88722656 0.55914062 2.45023437 0 2 C0 1.34 0 0.68 0 0 Z " fill="#191919" transform="translate(275,488)"/>
<path d="M0 0 C4.50802601 1.25805377 7.4912812 2.90407165 11 6 C8 7 8 7 5.95703125 6.07421875 C4.89548828 5.38779297 4.89548828 5.38779297 3.8125 4.6875 C3.09707031 4.23761719 2.38164063 3.78773438 1.64453125 3.32421875 C1.10183594 2.88722656 0.55914063 2.45023437 0 2 C0 1.34 0 0.68 0 0 Z " fill="#1B1B1B" transform="translate(583,485)"/>
<path d="M0 0 C4.50802601 1.25805377 7.4912812 2.90407165 11 6 C8 7 8 7 5.95703125 6.07421875 C4.89548828 5.38779297 4.89548828 5.38779297 3.8125 4.6875 C3.09707031 4.23761719 2.38164062 3.78773438 1.64453125 3.32421875 C1.10183594 2.88722656 0.55914062 2.45023437 0 2 C0 1.34 0 0.68 0 0 Z " fill="#1B1B1A" transform="translate(286,313)"/>
<path d="M0 0 C4.50802601 1.25805377 7.4912812 2.90407165 11 6 C8 7 8 7 5.95703125 6.07421875 C4.89548828 5.38779297 4.89548828 5.38779297 3.8125 4.6875 C3.09707031 4.23761719 2.38164063 3.78773438 1.64453125 3.32421875 C1.10183594 2.88722656 0.55914062 2.45023437 0 2 C0 1.34 0 0.68 0 0 Z " fill="#161615" transform="translate(511,262)"/>
<path d="M0 0 C-1.10789408 3.32368224 -1.48436217 3.61563093 -4.375 5.25 C-5.28378906 5.78367187 -5.28378906 5.78367187 -6.2109375 6.328125 C-8 7 -8 7 -11 6 C-3.28571429 0 -3.28571429 0 0 0 Z " fill="#1D1E1D" transform="translate(329,251)"/>
<path d="M0 0 C4.50802601 1.25805377 7.4912812 2.90407165 11 6 C8 7 8 7 5.95703125 6.07421875 C4.89548828 5.38779297 4.89548828 5.38779297 3.8125 4.6875 C3.09707031 4.23761719 2.38164062 3.78773438 1.64453125 3.32421875 C1.10183594 2.88722656 0.55914062 2.45023438 0 2 C0 1.34 0 0.68 0 0 Z " fill="#181918" transform="translate(172,247)"/>
<path d="M0 0 C4.50802601 1.25805377 7.4912812 2.90407165 11 6 C8 7 8 7 5.95703125 6.07421875 C4.89548828 5.38779297 4.89548828 5.38779297 3.8125 4.6875 C3.09707031 4.23761719 2.38164062 3.78773438 1.64453125 3.32421875 C1.10183594 2.88722656 0.55914062 2.45023438 0 2 C0 1.34 0 0.68 0 0 Z " fill="#1B1C1B" transform="translate(442,222)"/>
<path d="M0 0 C-0.33 0.99 -0.66 1.98 -1 3 C-3.5625 4.1875 -3.5625 4.1875 -6 5 C-6.33 4.34 -6.66 3.68 -7 3 C-2.25 0 -2.25 0 0 0 Z M-9 4 C-8.34 4 -7.68 4 -7 4 C-7.33 4.99 -7.66 5.98 -8 7 C-8.99 6.67 -9.98 6.34 -11 6 C-10.34 5.34 -9.68 4.68 -9 4 Z " fill="#1C1C1C" transform="translate(444,547)"/>
<path d="M0 0 C0.721875 0.78375 1.44375 1.5675 2.1875 2.375 C4.83299041 4.84412438 6.60373611 5.93260278 10 7 C8.02 7.99 8.02 7.99 6 9 C1.3125 5.484375 1.3125 5.484375 0 4 C0 2.68 0 1.36 0 0 Z " fill="#1D1F1D" transform="translate(132,499)"/>
<path d="M0 0 C-1 3 -1 3 -2.84765625 4.16796875 C-3.57855469 4.50441406 -4.30945313 4.84085937 -5.0625 5.1875 C-5.79597656 5.53167969 -6.52945313 5.87585938 -7.28515625 6.23046875 C-8.13400391 6.61138672 -8.13400391 6.61138672 -9 7 C-9.66 6.34 -10.32 5.68 -11 5 C-9.54462432 4.16151196 -8.08559627 3.32936066 -6.625 2.5 C-5.81289062 2.0359375 -5.00078125 1.571875 -4.1640625 1.09375 C-2 0 -2 0 0 0 Z " fill="#191918" transform="translate(192,485)"/>
<path d="M0 0 C0.66 0 1.32 0 2 0 C0.49946106 3.11650396 -1.06181958 6.13149298 -3 9 C-3.99 9.33 -4.98 9.66 -6 10 C-4.63312778 6.01328937 -2.84804907 3.11505367 0 0 Z " fill="#1E1E1D" transform="translate(277,280)"/>
<path d="M0 0 C-1 3 -1 3 -2.84765625 4.16796875 C-3.57855469 4.50441406 -4.30945313 4.84085937 -5.0625 5.1875 C-5.79597656 5.53167969 -6.52945313 5.87585938 -7.28515625 6.23046875 C-8.13400391 6.61138672 -8.13400391 6.61138672 -9 7 C-9.66 6.34 -10.32 5.68 -11 5 C-9.54462432 4.16151196 -8.08559627 3.32936066 -6.625 2.5 C-5.81289063 2.0359375 -5.00078125 1.571875 -4.1640625 1.09375 C-2 0 -2 0 0 0 Z " fill="#191918" transform="translate(565,269)"/>
<path d="M0 0 C-3.19990508 2.74277578 -6.00499382 4.6302836 -10 6 C-8.20404732 1.26521567 -5.07984355 -1.69328118 0 0 Z " fill="#191A19" transform="translate(508,330)"/>
<path d="M0 0 C3.40312738 1.05875074 6.01353231 2.00902154 9 4 C8.67 4.99 8.34 5.98 8 7 C6.66144944 6.21718695 5.32926356 5.42348123 4 4.625 C3.2575 4.18414062 2.515 3.74328125 1.75 3.2890625 C1.1725 2.86367188 0.595 2.43828125 0 2 C0 1.34 0 0.68 0 0 Z " fill="#191A1A" transform="translate(499,255)"/>
<path d="M0 0 C1.32 0.33 2.64 0.66 4 1 C2.7934375 2.175625 2.7934375 2.175625 1.5625 3.375 C-0.98690417 5.71982856 -0.98690417 5.71982856 -2 8 C-2.99 7.67 -3.98 7.34 -5 7 C-3.35 4.69 -1.7 2.38 0 0 Z " fill="#272827" transform="translate(134,266)"/>
<path d="M0 0 C0.66 0.33 1.32 0.66 2 1 C-1.07999946 4.67230705 -3.2482602 5.56802365 -8 6 C-5.63404067 3.38499232 -3.13950774 1.61000397 0 0 Z " fill="#171816" transform="translate(500,617)"/>
<path d="M0 0 C-0.625 1.875 -0.625 1.875 -2 4 C-5.125 5.25 -5.125 5.25 -8 6 C-8.33 5.34 -8.66 4.68 -9 4 C-2.25 0 -2.25 0 0 0 Z " fill="#1B1C1B" transform="translate(497,335)"/>
<path d="M0 0 C0.66 0 1.32 0 2 0 C1.6875 2.375 1.6875 2.375 1 5 C0.01 5.66 -0.98 6.32 -2 7 C-2.99 6.67 -3.98 6.34 -5 6 C-3.38405168 3.95880212 -1.7143618 1.95927063 0 0 Z " fill="#141414" transform="translate(404,110)"/>
<path d="M0 0 C-2.68841859 2.25245881 -4.64641875 3.88213958 -8 5 C-8.66 4.34 -9.32 3.68 -10 3 C-3.375 -1.125 -3.375 -1.125 0 0 Z " fill="#181918" transform="translate(432,659)"/>
<path d="M0 0 C3.9492568 0.55105909 7.34920174 1.38935371 11 3 C11 3.33 11 3.66 11 4 C3.49230769 3.38461538 3.49230769 3.38461538 1 1.4375 C0.67 0.963125 0.34 0.48875 0 0 Z " fill="#0D0E0E" transform="translate(348,531)"/>
<path d="M0 0 C-1 3 -1 3 -3.375 4.75 C-6 6 -6 6 -9 5 C-2.87096774 0 -2.87096774 0 0 0 Z " fill="#1F1F1E" transform="translate(205,504)"/>
<path d="M0 0 C-2.55991624 2.01136276 -5.04590299 3.62845496 -8 5 C-8.66 4.34 -9.32 3.68 -10 3 C-3.375 -1.125 -3.375 -1.125 0 0 Z " fill="#141514" transform="translate(511,483)"/>
<path d="M0 0 C3.66881155 0.70554068 6.70450534 2.27735506 10 4 C9.67 4.66 9.34 5.32 9 6 C5.06326356 4.68775452 2.77280706 3.08089673 0 0 Z " fill="#191A19" transform="translate(353,379)"/>
<path d="M0 0 C0.33 0 0.66 0 1 0 C1.05389087 1.95803507 1.09274217 3.91648909 1.125 5.875 C1.14820313 6.96554688 1.17140625 8.05609375 1.1953125 9.1796875 C1 12 1 12 -1 14 C-2.15837573 10.52487282 -1.77265943 8.86329714 -1.0625 5.3125 C-0.86785156 4.31863281 -0.67320312 3.32476562 -0.47265625 2.30078125 C-0.31667969 1.54152344 -0.16070313 0.78226563 0 0 Z " fill="#1C1C1C" transform="translate(615,226)"/>
<path d="M0 0 C-1 3 -1 3 -3.375 4.75 C-6 6 -6 6 -9 5 C-2.40909091 0 -2.40909091 0 0 0 Z " fill="#1D1D1D" transform="translate(288,144)"/>
<path d="M0 0 C-1.20703125 1.51953125 -1.20703125 1.51953125 -3 3 C-5.26171875 3.07421875 -5.26171875 3.07421875 -7.6875 2.6875 C-8.89986328 2.50767578 -8.89986328 2.50767578 -10.13671875 2.32421875 C-10.75160156 2.21722656 -11.36648437 2.11023438 -12 2 C-12 1.67 -12 1.34 -12 1 C-10.37681021 0.63762737 -8.7513642 0.28534843 -7.125 -0.0625 C-6.22007812 -0.25972656 -5.31515625 -0.45695312 -4.3828125 -0.66015625 C-2 -1 -2 -1 0 0 Z " fill="#E1E1DF" transform="translate(240,279)"/>
<path d="M0 0 C1.32 0.66 2.64 1.32 4 2 C1.1875 3.5625 1.1875 3.5625 -2 5 C-2.99 4.67 -3.98 4.34 -5 4 C-3.35 2.68 -1.7 1.36 0 0 Z " fill="#1D1D1C" transform="translate(619,263)"/>
<path d="M0 0 C-0.33 0.99 -0.66 1.98 -1 3 C-1.99 3.33 -2.98 3.66 -4 4 C-4 3.01 -4 2.02 -4 1 C-2 0 -2 0 0 0 Z M-7 3 C-6.34 3 -5.68 3 -5 3 C-5.33 3.99 -5.66 4.98 -6 6 C-6.99 5.67 -7.98 5.34 -9 5 C-8.34 4.34 -7.68 3.68 -7 3 Z " fill="#222322" transform="translate(205,192)"/>
<path d="M0 0 C-0.66 1.32 -1.32 2.64 -2 4 C-2.99 3.67 -3.98 3.34 -5 3 C-2.25 0 -2.25 0 0 0 Z M-7 3 C-6.34 3 -5.68 3 -5 3 C-5.33 3.99 -5.66 4.98 -6 6 C-6.99 5.67 -7.98 5.34 -9 5 C-8.34 4.34 -7.68 3.68 -7 3 Z " fill="#1B1B1A" transform="translate(276,151)"/>
<path d="M0 0 C-0.33 0.99 -0.66 1.98 -1 3 C-1.99 3.33 -2.98 3.66 -4 4 C-4 3.01 -4 2.02 -4 1 C-2 0 -2 0 0 0 Z M-7 3 C-6.34 3 -5.68 3 -5 3 C-5.33 3.99 -5.66 4.98 -6 6 C-6.99 5.67 -7.98 5.34 -9 5 C-8.34 4.34 -7.68 3.68 -7 3 Z " fill="#212221" transform="translate(319,126)"/>
<path d="M0 0 C-2.55991624 2.01136276 -5.04590299 3.62845496 -8 5 C-8 4.01 -8 3.02 -8 2 C-3.71900826 -1.23966942 -3.71900826 -1.23966942 0 0 Z " fill="#161615" transform="translate(543,595)"/>
<path d="M0 0 C2.99324263 1.0975223 3.84610901 1.67682892 5.25 4.625 C5.4975 5.40875 5.745 6.1925 6 7 C5.01 7 4.02 7 3 7 C0 2.77777778 0 2.77777778 0 0 Z " fill="#1B1C1A" transform="translate(370,571)"/>
<path d="M0 0 C2.64 0.66 5.28 1.32 8 2 C7.01 3.485 7.01 3.485 6 5 C4.02 4.01 2.04 3.02 0 2 C0 1.34 0 0.68 0 0 Z " fill="#161717" transform="translate(406,530)"/>
<path d="M0 0 C3.77545388 1.09068668 6.47043472 1.9083091 9 5 C5.65626525 4.44271087 2.96687001 3.64826111 0 2 C0 1.34 0 0.68 0 0 Z " fill="#121212" transform="translate(566,502)"/>
<path d="M0 0 C-1 3 -1 3 -4.0625 4.6875 C-5.031875 5.120625 -6.00125 5.55375 -7 6 C-7 5.01 -7 4.02 -7 3 C-2.77777778 0 -2.77777778 0 0 0 Z " fill="#151514" transform="translate(414,383)"/>
<path d="M0 0 C2.25 0.25 2.25 0.25 4 1 C2.02 2.32 0.04 3.64 -2 5 C-2.66 4.67 -3.32 4.34 -4 4 C-2.25 1.9375 -2.25 1.9375 0 0 Z " fill="#1D1D1D" transform="translate(476,346)"/>
<path d="M0 0 C3.37503669 1.1858237 5.64722731 2.27573689 8 5 C5.125 4.75 5.125 4.75 2 4 C0.625 1.9375 0.625 1.9375 0 0 Z " fill="#131413" transform="translate(304,323)"/>
<path d="M0 0 C3.45925163 1.2491742 6.14693203 2.67527795 9 5 C5.26512223 4.5020163 3.18762365 4.12508244 0 2 C0 1.34 0 0.68 0 0 Z " fill="#0D0D0D" transform="translate(461,260)"/>
<path d="M0 0 C-1 3 -1 3 -4.0625 4.6875 C-5.031875 5.120625 -6.00125 5.55375 -7 6 C-7 5.01 -7 4.02 -7 3 C-2.77777778 0 -2.77777778 0 0 0 Z " fill="#141514" transform="translate(224,181)"/>
<path d="M0 0 C3.77545388 1.09068668 6.47043472 1.9083091 9 5 C6.03 4.505 6.03 4.505 3 4 C3 3.34 3 2.68 3 2 C2.01 2 1.02 2 0 2 C0 1.34 0 0.68 0 0 Z " fill="#0E0E0E" transform="translate(526,167)"/>
</svg>
